<?xml version="1.0" encoding="UTF-8" standalone="no"?>
<!-- Created with Inkscape (http://www.inkscape.org/) -->

<svg
   version="1.1"
   id="svg2"
   width="666.66669"
   height="666.66669"
   viewBox="0 0 666.66669 666.66669"
   sodipodi:docname="5605452.eps"
   xmlns:inkscape="http://www.inkscape.org/namespaces/inkscape"
   xmlns:sodipodi="http://sodipodi.sourceforge.net/DTD/sodipodi-0.dtd"
   xmlns="http://www.w3.org/2000/svg"
   xmlns:svg="http://www.w3.org/2000/svg">
  <defs
     id="defs6">
    <clipPath
       clipPathUnits="userSpaceOnUse"
       id="clipPath250">
      <path
         d="m 3891.96,4066.59 c 22.1,40.62 36.84,81.28 34.3,132.09 -6.36,127.36 -110.54,230.24 -237.97,235.04 -141.26,5.33 -257.45,-107.61 -257.45,-247.69 0,-72.08 33.46,-123.3 72.23,-180.79 42.2,-62.59 84.41,-125.18 126.62,-187.77 8.78,-13.03 18.52,-26.83 33.28,-32.22 16.72,-6.1 35.95,0.56 49.38,12.23 20.77,18.02 34,46.85 49.35,69.6 34.42,51.04 71.52,103.06 104.54,156.07 9.2,14.77 17.92,29.1 25.72,43.44 z"
         id="path248" />
    </clipPath>
    <linearGradient
       x1="0"
       y1="0"
       x2="1"
       y2="0"
       gradientUnits="userSpaceOnUse"
       gradientTransform="matrix(495.708,0,0,-495.708,3430.84,4108.42)"
       spreadMethod="pad"
       id="linearGradient256">
      <stop
         style="stop-opacity:1;stop-color:#f1448c"
         offset="0"
         id="stop252" />
      <stop
         style="stop-opacity:1;stop-color:#f7972b"
         offset="1"
         id="stop254" />
    </linearGradient>
    <clipPath
       clipPathUnits="userSpaceOnUse"
       id="clipPath276">
      <path
         d="m 1493.21,3425.5 c 21.58,39.68 35.98,79.4 33.5,129.03 -6.21,124.41 -107.97,224.89 -232.45,229.59 -137.99,5.2 -251.49,-105.12 -251.49,-241.95 0,-70.41 32.69,-120.44 70.56,-176.59 41.23,-61.14 82.46,-122.28 123.68,-183.42 8.59,-12.73 18.1,-26.2 32.52,-31.47 16.32,-5.96 35.11,0.55 48.24,11.94 20.28,17.61 33.2,45.76 48.19,67.99 33.63,49.86 69.87,100.66 102.13,152.45 8.99,14.43 17.5,28.42 25.12,42.43 z"
         id="path274" />
    </clipPath>
    <linearGradient
       x1="0"
       y1="0"
       x2="1"
       y2="0"
       gradientUnits="userSpaceOnUse"
       gradientTransform="matrix(484.213,0,0,-484.213,1042.78,3466.36)"
       spreadMethod="pad"
       id="linearGradient282">
      <stop
         style="stop-opacity:1;stop-color:#f1448c"
         offset="0"
         id="stop278" />
      <stop
         style="stop-opacity:1;stop-color:#f7972b"
         offset="1"
         id="stop280" />
    </linearGradient>
    <clipPath
       clipPathUnits="userSpaceOnUse"
       id="clipPath298">
      <path
         d="m 3900.44,2836.51 c 22.99,42.24 38.3,84.52 35.66,137.34 -6.6,132.43 -114.93,239.4 -247.43,244.4 -146.87,5.53 -267.69,-111.9 -267.69,-257.55 0,-74.95 34.79,-128.2 75.09,-187.98 43.89,-65.08 87.78,-130.16 131.66,-195.23 9.15,-13.55 19.27,-27.9 34.61,-33.51 17.39,-6.34 37.39,0.59 51.35,12.71 21.59,18.75 35.34,48.72 51.31,72.38 35.79,53.07 74.37,107.15 108.7,162.28 9.57,15.35 18.63,30.25 26.74,45.16 z"
         id="path296" />
    </clipPath>
    <linearGradient
       x1="0"
       y1="0"
       x2="1"
       y2="0"
       gradientUnits="userSpaceOnUse"
       gradientTransform="matrix(515.425,0,0,-515.425,3420.98,2880.01)"
       spreadMethod="pad"
       id="linearGradient304">
      <stop
         style="stop-opacity:1;stop-color:#f1448c"
         offset="0"
         id="stop300" />
      <stop
         style="stop-opacity:1;stop-color:#f7972b"
         offset="1"
         id="stop302" />
    </linearGradient>
    <clipPath
       clipPathUnits="userSpaceOnUse"
       id="clipPath320">
      <path
         d="m 1497.71,2181.29 c 22.06,40.54 36.76,81.11 34.23,131.82 -6.34,127.09 -110.31,229.75 -237.47,234.55 -140.97,5.31 -256.93,-107.4 -256.93,-247.18 0,-71.94 33.39,-123.04 72.08,-180.41 42.12,-62.46 84.24,-124.92 126.36,-187.37 8.77,-13.01 18.49,-26.78 33.21,-32.16 16.68,-6.1 35.88,0.55 49.29,12.19 20.72,18 33.92,46.76 49.23,69.47 34.36,50.93 71.38,102.84 104.34,155.74 9.18,14.75 17.88,29.04 25.66,43.35 z"
         id="path318" />
    </clipPath>
    <linearGradient
       x1="0"
       y1="0"
       x2="1"
       y2="0"
       gradientUnits="userSpaceOnUse"
       gradientTransform="matrix(494.676,0,0,-494.676,1037.54,2223.04)"
       spreadMethod="pad"
       id="linearGradient326">
      <stop
         style="stop-opacity:1;stop-color:#f1448c"
         offset="0"
         id="stop322" />
      <stop
         style="stop-opacity:1;stop-color:#f7972b"
         offset="1"
         id="stop324" />
    </linearGradient>
    <clipPath
       clipPathUnits="userSpaceOnUse"
       id="clipPath342">
      <path
         d="m 3896.26,1547.25 c 22.55,41.44 37.58,82.92 34.99,134.75 -6.48,129.93 -112.76,234.88 -242.76,239.79 -144.11,5.43 -262.65,-109.79 -262.65,-252.69 0,-73.53 34.13,-125.79 73.68,-184.43 43.06,-63.86 86.11,-127.71 129.18,-191.56 8.96,-13.3 18.9,-27.37 33.96,-32.87 17.05,-6.23 36.67,0.57 50.38,12.47 21.18,18.39 34.67,47.8 50.33,71.01 35.13,52.07 72.97,105.13 106.66,159.22 9.38,15.07 18.27,29.69 26.23,44.31 z"
         id="path340" />
    </clipPath>
    <linearGradient
       x1="0"
       y1="0"
       x2="1"
       y2="0"
       gradientUnits="userSpaceOnUse"
       gradientTransform="matrix(505.705,0,0,-505.705,3425.84,1589.93)"
       spreadMethod="pad"
       id="linearGradient348">
      <stop
         style="stop-opacity:1;stop-color:#f1448c"
         offset="0"
         id="stop344" />
      <stop
         style="stop-opacity:1;stop-color:#f7972b"
         offset="1"
         id="stop346" />
    </linearGradient>
    <clipPath
       clipPathUnits="userSpaceOnUse"
       id="clipPath368">
      <path
         d="m 1486.83,924.391 c 20.92,38.468 34.87,76.969 32.47,125.079 -6.01,120.6 -104.67,218.01 -225.33,222.56 -133.76,5.04 -243.78,-101.9 -243.78,-234.54 0,-68.248 31.69,-116.752 68.39,-171.181 39.97,-59.27 79.94,-118.539 119.9,-177.797 8.32,-12.34 17.54,-25.403 31.52,-30.512 15.82,-5.781 34.04,0.539 46.76,11.582 19.66,17.066 32.19,44.359 46.72,65.91 32.6,48.328 67.73,97.578 99,147.77 8.71,13.988 16.96,27.558 24.35,41.129 z"
         id="path366" />
    </clipPath>
    <linearGradient
       x1="0"
       y1="0"
       x2="1"
       y2="0"
       gradientUnits="userSpaceOnUse"
       gradientTransform="matrix(469.381,0,0,-469.381,1050.19,964.01)"
       spreadMethod="pad"
       id="linearGradient374">
      <stop
         style="stop-opacity:1;stop-color:#f1448c"
         offset="0"
         id="stop370" />
      <stop
         style="stop-opacity:1;stop-color:#f7972b"
         offset="1"
         id="stop372" />
    </linearGradient>
  </defs>
  <sodipodi:namedview
     id="namedview4"
     pagecolor="#ffffff"
     bordercolor="#000000"
     borderopacity="0.25"
     inkscape:showpageshadow="2"
     inkscape:pageopacity="0.0"
     inkscape:pagecheckerboard="0"
     inkscape:deskcolor="#d1d1d1" />
  <g
     id="g8"
     inkscape:groupmode="layer"
     inkscape:label="ink_ext_XXXXXX"
     transform="matrix(1.3333333,0,0,-1.3333333,0,666.66667)">
    <g
       id="g10"
       transform="scale(0.1)">
      <path
         d="M 5000,0 H 0 V 5000 H 5000 V 0"
         style="fill:#ffffff;fill-opacity:1;fill-rule:nonzero;stroke:none"
         id="path12" />
      <g
         id="g14"
         transform="scale(10)">
        <text
           xml:space="preserve"
           transform="matrix(1,0,0,-1,19.4238,440.388)"
           style="font-variant:normal;font-weight:900;font-size:28.5143px;font-family:Montserrat;-inkscape-font-specification:Montserrat-Black;writing-mode:lr-tb;fill:#292e40;fill-opacity:1;fill-rule:nonzero;stroke:none"
           id="text20"><tspan
             x="0 18.448698 36.099102 59.081627 80.040131"
             y="0"
             sodipodi:role="line"
             id="tspan16">START</tspan><tspan
             x="369.60199 391.52951 415.42453 438.40704"
             y="382.707"
             sodipodi:role="line"
             id="tspan18">GOAL</tspan></text>
      </g>
      <path
         d="M 5000,504.16 H 1158.23 c -145.52,0 -263.906,108.399 -263.906,241.649 0,133.242 118.386,241.652 263.906,241.652 h 2673.89 c 2.71,0 5.4,0.16 8.05,0.437 219.91,9.172 395.85,181.282 395.85,391.612 0,216.18 -185.86,392.05 -414.3,392.05 H 1158.23 c -145.52,0 -263.906,108.4 -263.906,241.65 0,133.25 118.386,241.65 263.906,241.65 h 2673.89 c 2.71,0 5.4,0.16 8.05,0.44 219.91,9.17 395.85,181.28 395.85,391.61 0,216.18 -185.86,392.05 -414.3,392.05 H 1216.95 c -0.75,0 -1.49,-0.09 -2.23,-0.11 h -56.49 c -145.52,0 -263.906,108.41 -263.906,241.65 0,133.25 118.386,241.65 263.906,241.65 h 2673.89 c 2.71,0 5.4,0.16 8.05,0.44 219.91,9.18 395.85,181.29 395.85,391.61 0,216.18 -185.86,392.05 -414.3,392.05 H 0 v -150.39 h 3821.72 c 145.52,0 263.9,-108.41 263.9,-241.66 0,-133.24 -118.38,-241.65 -263.9,-241.65 H 1158.23 c -228.449,0 -414.304,-175.87 -414.304,-392.05 0,-216.17 185.855,-392.05 414.304,-392.05 h 2197.21 c 0.75,0 1.48,0.09 2.23,0.11 h 464.05 c 145.52,0 263.9,-108.4 263.9,-241.65 0,-133.24 -118.38,-241.65 -263.9,-241.65 H 1158.23 c -228.449,0 -414.304,-175.87 -414.304,-392.05 0,-216.18 185.855,-392.05 414.304,-392.05 h 2663.49 c 145.52,0 263.9,-108.41 263.9,-241.65 0,-133.25 -118.38,-241.65 -263.9,-241.65 H 1158.23 c -228.449,0 -414.304,-175.872 -414.304,-392.051 0,-216.18 185.855,-392.047 414.304,-392.047 H 5000 V 504.16"
         style="fill:#292e40;fill-opacity:1;fill-rule:nonzero;stroke:none"
         id="path22" />
      <path
         d="m 3355.44,2953.62 h -25.07 c -5.55,0 -10.03,4.5 -10.03,10.03 0,5.54 4.48,10.03 10.03,10.03 h 25.07 c 5.54,0 10.02,-4.49 10.02,-10.03 0,-5.53 -4.48,-10.03 -10.02,-10.03"
         style="fill:#6465a6;fill-opacity:1;fill-rule:nonzero;stroke:none"
         id="path24" />
      <path
         d="m 1515.54,3607.38 h -49.87 c -5.54,0 -10.03,-4.49 -10.03,-10.03 0,-5.53 4.49,-10.03 10.03,-10.03 h 49.87 c 5.53,0 10.03,4.5 10.03,10.03 0,5.54 -4.5,10.03 -10.03,10.03"
         style="fill:#6465a6;fill-opacity:1;fill-rule:nonzero;stroke:none"
         id="path26" />
      <path
         d="m 1553.89,4241.08 h -49.87 c -5.53,0 -10.02,-4.49 -10.02,-10.03 0,-5.53 4.49,-10.03 10.02,-10.03 h 49.87 c 5.54,0 10.03,4.5 10.03,10.03 0,5.54 -4.49,10.03 -10.03,10.03"
         style="fill:#6465a6;fill-opacity:1;fill-rule:nonzero;stroke:none"
         id="path28" />
      <path
         d="m 1306.09,3607.38 h -49.86 c -5.54,0 -10.03,-4.49 -10.03,-10.03 0,-5.53 4.49,-10.03 10.03,-10.03 h 49.86 c 5.54,0 10.03,4.5 10.03,10.03 0,5.54 -4.49,10.03 -10.03,10.03"
         style="fill:#6465a6;fill-opacity:1;fill-rule:nonzero;stroke:none"
         id="path30" />
      <path
         d="m 1704.69,2973.68 h -49.87 c -5.53,0 -10.02,-4.49 -10.02,-10.03 0,-5.53 4.49,-10.03 10.02,-10.03 h 49.87 c 5.54,0 10.03,4.5 10.03,10.03 0,5.54 -4.49,10.03 -10.03,10.03"
         style="fill:#6465a6;fill-opacity:1;fill-rule:nonzero;stroke:none"
         id="path32" />
      <path
         d="m 1344.45,4241.08 h -49.87 c -5.53,0 -10.02,-4.49 -10.02,-10.03 0,-5.53 4.49,-10.03 10.02,-10.03 h 49.87 c 5.54,0 10.03,4.5 10.03,10.03 0,5.54 -4.49,10.03 -10.03,10.03"
         style="fill:#6465a6;fill-opacity:1;fill-rule:nonzero;stroke:none"
         id="path34" />
      <path
         d="m 1495.25,2973.68 h -49.87 c -5.54,0 -10.02,-4.49 -10.02,-10.03 0,-5.53 4.48,-10.03 10.02,-10.03 h 49.87 c 5.54,0 10.03,4.5 10.03,10.03 0,5.54 -4.49,10.03 -10.03,10.03"
         style="fill:#6465a6;fill-opacity:1;fill-rule:nonzero;stroke:none"
         id="path36" />
      <path
         d="m 1934.42,3607.38 h -49.86 c -5.54,0 -10.03,-4.49 -10.03,-10.03 0,-5.53 4.49,-10.03 10.03,-10.03 h 49.86 c 5.54,0 10.03,4.5 10.03,10.03 0,5.54 -4.49,10.03 -10.03,10.03"
         style="fill:#6465a6;fill-opacity:1;fill-rule:nonzero;stroke:none"
         id="path38" />
      <path
         d="m 1972.78,4241.08 h -49.86 c -5.54,0 -10.03,-4.49 -10.03,-10.03 0,-5.53 4.49,-10.03 10.03,-10.03 h 49.86 c 5.54,0 10.03,4.5 10.03,10.03 0,5.54 -4.49,10.03 -10.03,10.03"
         style="fill:#6465a6;fill-opacity:1;fill-rule:nonzero;stroke:none"
         id="path40" />
      <path
         d="m 2123.57,2973.68 h -49.86 c -5.54,0 -10.02,-4.49 -10.02,-10.03 0,-5.53 4.48,-10.03 10.02,-10.03 h 49.86 c 5.54,0 10.03,4.5 10.03,10.03 0,5.54 -4.49,10.03 -10.03,10.03"
         style="fill:#6465a6;fill-opacity:1;fill-rule:nonzero;stroke:none"
         id="path42" />
      <path
         d="m 1724.98,3607.38 h -49.87 c -5.53,0 -10.02,-4.49 -10.02,-10.03 0,-5.53 4.49,-10.03 10.02,-10.03 h 49.87 c 5.54,0 10.02,4.5 10.02,10.03 0,5.54 -4.48,10.03 -10.02,10.03"
         style="fill:#6465a6;fill-opacity:1;fill-rule:nonzero;stroke:none"
         id="path44" />
      <path
         d="M 2143.86,3607.38 H 2094 c -5.54,0 -10.03,-4.49 -10.03,-10.03 0,-5.53 4.49,-10.03 10.03,-10.03 h 49.86 c 5.54,0 10.03,4.5 10.03,10.03 0,5.54 -4.49,10.03 -10.03,10.03"
         style="fill:#6465a6;fill-opacity:1;fill-rule:nonzero;stroke:none"
         id="path46" />
      <path
         d="m 1763.34,4241.08 h -49.87 c -5.54,0 -10.03,-4.49 -10.03,-10.03 0,-5.53 4.49,-10.03 10.03,-10.03 h 49.87 c 5.54,0 10.02,4.5 10.02,10.03 0,5.54 -4.48,10.03 -10.02,10.03"
         style="fill:#6465a6;fill-opacity:1;fill-rule:nonzero;stroke:none"
         id="path48" />
      <path
         d="m 1914.14,2973.68 h -49.87 c -5.54,0 -10.03,-4.49 -10.03,-10.03 0,-5.53 4.49,-10.03 10.03,-10.03 h 49.87 c 5.53,0 10.03,4.5 10.03,10.03 0,5.54 -4.5,10.03 -10.03,10.03"
         style="fill:#6465a6;fill-opacity:1;fill-rule:nonzero;stroke:none"
         id="path50" />
      <path
         d="m 506.676,4241.08 h -49.863 c -5.54,0 -10.028,-4.49 -10.028,-10.03 0,-5.53 4.488,-10.03 10.028,-10.03 h 49.863 c 5.535,0 10.027,4.5 10.027,10.03 0,5.54 -4.492,10.03 -10.027,10.03"
         style="fill:#6465a6;fill-opacity:1;fill-rule:nonzero;stroke:none"
         id="path52" />
      <path
         d="M 716.121,4241.08 H 666.25 c -5.535,0 -10.023,-4.49 -10.023,-10.03 0,-5.53 4.488,-10.03 10.023,-10.03 h 49.871 c 5.539,0 10.027,4.5 10.027,10.03 0,5.54 -4.488,10.03 -10.027,10.03"
         style="fill:#6465a6;fill-opacity:1;fill-rule:nonzero;stroke:none"
         id="path54" />
      <path
         d="m 822.344,3325.45 c -5.473,0.62 -10.481,-3.29 -11.129,-8.78 -1.406,-11.93 -2.113,-24.11 -2.113,-36.17 0,-5.12 0.128,-10.2 0.375,-15.26 0.257,-5.36 4.687,-9.53 10,-9.53 0.168,0 0.332,0 0.5,0.01 5.531,0.27 9.796,4.98 9.531,10.51 -0.235,4.72 -0.36,9.48 -0.36,14.27 0,11.29 0.672,22.66 1.985,33.83 0.644,5.49 -3.285,10.48 -8.789,11.12"
         style="fill:#6465a6;fill-opacity:1;fill-rule:nonzero;stroke:none"
         id="path56" />
      <path
         d="M 87.793,4241.08 H 37.9258 c -5.5391,0 -10.0235,-4.49 -10.0235,-10.03 0,-5.53 4.4844,-10.03 10.0235,-10.03 H 87.793 c 5.539,0 10.0234,4.5 10.0234,10.03 0,5.54 -4.4844,10.03 -10.0234,10.03"
         style="fill:#6465a6;fill-opacity:1;fill-rule:nonzero;stroke:none"
         id="path58" />
      <path
         d="m 876.84,3121.35 c -3.027,4.65 -9.242,5.95 -13.875,2.93 -4.645,-3.03 -5.949,-9.24 -2.93,-13.87 9.262,-14.23 19.813,-27.92 31.348,-40.72 1.984,-2.19 4.711,-3.3 7.457,-3.3 2.387,0 4.789,0.85 6.707,2.57 4.109,3.72 4.437,10.06 0.73,14.17 -10.839,12.01 -20.746,24.87 -29.437,38.22"
         style="fill:#6465a6;fill-opacity:1;fill-rule:nonzero;stroke:none"
         id="path60" />
      <path
         d="m 297.234,4241.08 h -49.867 c -5.535,0 -10.027,-4.49 -10.027,-10.03 0,-5.53 4.492,-10.03 10.027,-10.03 h 49.867 c 5.539,0 10.028,4.5 10.028,10.03 0,5.54 -4.489,10.03 -10.028,10.03"
         style="fill:#6465a6;fill-opacity:1;fill-rule:nonzero;stroke:none"
         id="path62" />
      <path
         d="m 1095.28,3602.08 c -16.84,-2.88 -33.59,-6.95 -49.77,-12.11 -5.28,-1.69 -8.19,-7.33 -6.51,-12.6 1.37,-4.27 5.31,-6.99 9.55,-6.99 1.02,0 2.04,0.16 3.06,0.48 15.29,4.88 31.12,8.73 47.04,11.44 5.46,0.94 9.13,6.12 8.2,11.58 -0.93,5.46 -6.08,9.12 -11.57,8.2"
         style="fill:#6465a6;fill-opacity:1;fill-rule:nonzero;stroke:none"
         id="path64" />
      <path
         d="m 1135.01,4241.08 h -49.87 c -5.54,0 -10.03,-4.49 -10.03,-10.03 0,-5.53 4.49,-10.03 10.03,-10.03 h 49.87 c 5.54,0 10.02,4.5 10.02,10.03 0,5.54 -4.48,10.03 -10.02,10.03"
         style="fill:#6465a6;fill-opacity:1;fill-rule:nonzero;stroke:none"
         id="path66" />
      <path
         d="m 1285.81,2973.68 h -49.87 c -5.53,0 -10.03,-4.49 -10.03,-10.03 0,-5.53 4.5,-10.03 10.03,-10.03 h 49.87 c 5.53,0 10.02,4.5 10.02,10.03 0,5.54 -4.49,10.03 -10.02,10.03"
         style="fill:#6465a6;fill-opacity:1;fill-rule:nonzero;stroke:none"
         id="path68" />
      <path
         d="m 925.563,4241.08 h -49.864 c -5.539,0 -10.031,-4.49 -10.031,-10.03 0,-5.53 4.492,-10.03 10.031,-10.03 h 49.864 c 5.535,0 10.027,4.5 10.027,10.03 0,5.54 -4.492,10.03 -10.027,10.03"
         style="fill:#6465a6;fill-opacity:1;fill-rule:nonzero;stroke:none"
         id="path70" />
      <path
         d="m 905.863,3506.38 c -12.269,-12.01 -23.656,-25 -33.828,-38.61 -3.32,-4.43 -2.406,-10.71 2.024,-14.03 1.8,-1.35 3.91,-2 5.996,-2 3.054,0 6.074,1.39 8.043,4.03 9.554,12.77 20.254,24.99 31.789,36.28 3.961,3.87 4.031,10.22 0.156,14.18 -3.875,3.96 -10.23,4.03 -14.18,0.15"
         style="fill:#6465a6;fill-opacity:1;fill-rule:nonzero;stroke:none"
         id="path72" />
      <path
         d="m 1079.31,2982.55 c -15.74,3.62 -31.32,8.36 -46.29,14.12 -5.15,1.98 -10.97,-0.6 -12.96,-5.77 -1.98,-5.17 0.6,-10.97 5.77,-12.96 15.85,-6.08 32.34,-11.11 49,-14.93 0.75,-0.17 1.5,-0.26 2.25,-0.26 4.57,0 8.7,3.15 9.76,7.79 1.24,5.39 -2.13,10.77 -7.53,12.01"
         style="fill:#6465a6;fill-opacity:1;fill-rule:nonzero;stroke:none"
         id="path74" />
      <path
         d="m 3191.08,3607.38 h -49.87 c -5.54,0 -10.03,-4.49 -10.03,-10.03 0,-5.53 4.49,-10.03 10.03,-10.03 h 49.87 c 5.54,0 10.02,4.5 10.02,10.03 0,5.54 -4.48,10.03 -10.02,10.03"
         style="fill:#6465a6;fill-opacity:1;fill-rule:nonzero;stroke:none"
         id="path76" />
      <path
         d="m 3819.4,3607.38 h -49.85 c -5.55,0 -10.03,-4.49 -10.03,-10.03 0,-5.53 4.48,-10.03 10.03,-10.03 h 49.85 c 5.55,0 10.03,4.5 10.03,10.03 0,5.54 -4.48,10.03 -10.03,10.03"
         style="fill:#6465a6;fill-opacity:1;fill-rule:nonzero;stroke:none"
         id="path78" />
      <path
         d="m 3609.97,3607.38 h -49.87 c -5.54,0 -10.02,-4.49 -10.02,-10.03 0,-5.53 4.48,-10.03 10.02,-10.03 h 49.87 c 5.55,0 10.03,4.5 10.03,10.03 0,5.54 -4.48,10.03 -10.03,10.03"
         style="fill:#6465a6;fill-opacity:1;fill-rule:nonzero;stroke:none"
         id="path80" />
      <path
         d="m 3648.33,4241.08 h -49.87 c -5.55,0 -10.03,-4.49 -10.03,-10.03 0,-5.53 4.48,-10.03 10.03,-10.03 h 49.87 c 5.54,0 10.02,4.5 10.02,10.03 0,5.54 -4.48,10.03 -10.02,10.03"
         style="fill:#6465a6;fill-opacity:1;fill-rule:nonzero;stroke:none"
         id="path82" />
      <path
         d="m 3438.88,4241.08 h -49.87 c -5.54,0 -10.03,-4.49 -10.03,-10.03 0,-5.53 4.49,-10.03 10.03,-10.03 h 49.87 c 5.54,0 10.03,4.5 10.03,10.03 0,5.54 -4.49,10.03 -10.03,10.03"
         style="fill:#6465a6;fill-opacity:1;fill-rule:nonzero;stroke:none"
         id="path84" />
      <path
         d="m 3400.53,3607.38 h -49.88 c -5.53,0 -10.02,-4.49 -10.02,-10.03 0,-5.53 4.49,-10.03 10.02,-10.03 h 49.88 c 5.53,0 10.03,4.5 10.03,10.03 0,5.54 -4.5,10.03 -10.03,10.03"
         style="fill:#6465a6;fill-opacity:1;fill-rule:nonzero;stroke:none"
         id="path86" />
      <path
         d="m 3229.43,4241.08 h -49.86 c -5.55,0 -10.03,-4.49 -10.03,-10.03 0,-5.53 4.48,-10.03 10.03,-10.03 h 49.86 c 5.55,0 10.03,4.5 10.03,10.03 0,5.54 -4.48,10.03 -10.03,10.03"
         style="fill:#6465a6;fill-opacity:1;fill-rule:nonzero;stroke:none"
         id="path88" />
      <path
         d="m 4147.85,3826.58 c -5.25,1.82 -10.95,-0.99 -12.73,-6.22 -5.21,-15.09 -11.72,-29.92 -19.37,-44.06 -2.62,-4.87 -0.81,-10.96 4.05,-13.59 1.53,-0.82 3.16,-1.21 4.77,-1.21 3.56,0 7.02,1.91 8.83,5.26 8.16,15.11 15.12,30.95 20.67,47.07 1.8,5.24 -0.98,10.95 -6.22,12.75"
         style="fill:#6465a6;fill-opacity:1;fill-rule:nonzero;stroke:none"
         id="path90" />
      <path
         d="m 3170.79,2973.68 h -49.86 c -5.55,0 -10.03,-4.49 -10.03,-10.03 0,-5.53 4.48,-10.03 10.03,-10.03 h 49.86 c 5.55,0 10.03,4.5 10.03,10.03 0,5.54 -4.48,10.03 -10.03,10.03"
         style="fill:#6465a6;fill-opacity:1;fill-rule:nonzero;stroke:none"
         id="path92" />
      <path
         d="m 3858.67,4239.27 c -12.18,1.2 -24.62,1.81 -36.95,1.81 h -13.82 c -5.54,0 -10.03,-4.49 -10.03,-10.03 0,-5.53 4.49,-10.03 10.03,-10.03 h 13.82 c 11.68,0 23.45,-0.57 34.99,-1.71 0.34,-0.03 0.67,-0.05 1,-0.05 5.09,0 9.45,3.87 9.96,9.04 0.55,5.52 -3.48,10.43 -9,10.97"
         style="fill:#6465a6;fill-opacity:1;fill-rule:nonzero;stroke:none"
         id="path94" />
      <path
         d="m 2182.22,4241.08 h -49.87 c -5.53,0 -10.02,-4.49 -10.02,-10.03 0,-5.53 4.49,-10.03 10.02,-10.03 h 49.87 c 5.54,0 10.03,4.5 10.03,10.03 0,5.54 -4.49,10.03 -10.03,10.03"
         style="fill:#6465a6;fill-opacity:1;fill-rule:nonzero;stroke:none"
         id="path96" />
      <path
         d="m 4011.92,3663.8 c -13.37,-8.84 -27.56,-16.82 -42.19,-23.7 -5.01,-2.36 -7.16,-8.33 -4.81,-13.34 1.72,-3.63 5.31,-5.76 9.09,-5.76 1.43,0 2.87,0.3 4.26,0.95 15.51,7.29 30.55,15.76 44.72,25.14 4.62,3.05 5.88,9.28 2.83,13.89 -3.06,4.62 -9.29,5.89 -13.9,2.82"
         style="fill:#6465a6;fill-opacity:1;fill-rule:nonzero;stroke:none"
         id="path98" />
      <path
         d="m 4012.98,4187.71 c -4.72,2.92 -10.89,1.43 -13.8,-3.29 -2.89,-4.72 -1.42,-10.9 3.3,-13.79 13.77,-8.45 26.96,-17.95 39.21,-28.23 1.88,-1.58 4.16,-2.34 6.44,-2.34 2.87,0 5.7,1.22 7.69,3.58 3.56,4.24 3,10.57 -1.24,14.13 -13.01,10.91 -27,20.98 -41.6,29.94"
         style="fill:#6465a6;fill-opacity:1;fill-rule:nonzero;stroke:none"
         id="path100" />
      <path
         d="m 4164.53,3976.41 c -3.45,16.75 -8.35,33.37 -14.55,49.38 -2.02,5.17 -7.85,7.72 -12.98,5.73 -5.15,-2 -7.72,-7.81 -5.73,-12.97 5.81,-14.98 10.39,-30.52 13.61,-46.19 0.98,-4.74 5.16,-8 9.82,-8 0.66,0 1.34,0.06 2.02,0.21 5.43,1.11 8.92,6.42 7.81,11.84"
         style="fill:#6465a6;fill-opacity:1;fill-rule:nonzero;stroke:none"
         id="path102" />
      <path
         d="m 2542.47,2973.68 h -49.87 c -5.54,0 -10.03,-4.49 -10.03,-10.03 0,-5.53 4.49,-10.03 10.03,-10.03 h 49.87 c 5.54,0 10.02,4.5 10.02,10.03 0,5.54 -4.48,10.03 -10.02,10.03"
         style="fill:#6465a6;fill-opacity:1;fill-rule:nonzero;stroke:none"
         id="path104" />
      <path
         d="m 3019.99,4241.08 h -49.86 c -5.54,0 -10.02,-4.49 -10.02,-10.03 0,-5.53 4.48,-10.03 10.02,-10.03 h 49.86 c 5.55,0 10.03,4.5 10.03,10.03 0,5.54 -4.48,10.03 -10.03,10.03"
         style="fill:#6465a6;fill-opacity:1;fill-rule:nonzero;stroke:none"
         id="path106" />
      <path
         d="m 2562.75,3607.38 h -49.86 c -5.55,0 -10.03,-4.49 -10.03,-10.03 0,-5.53 4.48,-10.03 10.03,-10.03 h 49.86 c 5.55,0 10.03,4.5 10.03,10.03 0,5.54 -4.48,10.03 -10.03,10.03"
         style="fill:#6465a6;fill-opacity:1;fill-rule:nonzero;stroke:none"
         id="path108" />
      <path
         d="m 2391.67,4241.08 h -49.87 c -5.54,0 -10.03,-4.49 -10.03,-10.03 0,-5.53 4.49,-10.03 10.03,-10.03 h 49.87 c 5.53,0 10.02,4.5 10.02,10.03 0,5.54 -4.49,10.03 -10.02,10.03"
         style="fill:#6465a6;fill-opacity:1;fill-rule:nonzero;stroke:none"
         id="path110" />
      <path
         d="m 2353.31,3607.38 h -49.87 c -5.53,0 -10.03,-4.49 -10.03,-10.03 0,-5.53 4.5,-10.03 10.03,-10.03 h 49.87 c 5.54,0 10.02,4.5 10.02,10.03 0,5.54 -4.48,10.03 -10.02,10.03"
         style="fill:#6465a6;fill-opacity:1;fill-rule:nonzero;stroke:none"
         id="path112" />
      <path
         d="m 2333.02,2973.68 h -49.87 c -5.53,0 -10.02,-4.49 -10.02,-10.03 0,-5.53 4.49,-10.03 10.02,-10.03 h 49.87 c 5.54,0 10.03,4.5 10.03,10.03 0,5.54 -4.49,10.03 -10.03,10.03"
         style="fill:#6465a6;fill-opacity:1;fill-rule:nonzero;stroke:none"
         id="path114" />
      <path
         d="m 2601.11,4241.08 h -49.87 c -5.55,0 -10.03,-4.49 -10.03,-10.03 0,-5.53 4.48,-10.03 10.03,-10.03 h 49.87 c 5.54,0 10.02,4.5 10.02,10.03 0,5.54 -4.48,10.03 -10.02,10.03"
         style="fill:#6465a6;fill-opacity:1;fill-rule:nonzero;stroke:none"
         id="path116" />
      <path
         d="m 2961.35,2973.68 h -49.88 c -5.53,0 -10.01,-4.49 -10.01,-10.03 0,-5.53 4.48,-10.03 10.01,-10.03 h 49.88 c 5.53,0 10.03,4.5 10.03,10.03 0,5.54 -4.5,10.03 -10.03,10.03"
         style="fill:#6465a6;fill-opacity:1;fill-rule:nonzero;stroke:none"
         id="path118" />
      <path
         d="m 2751.9,2973.68 h -49.86 c -5.54,0 -10.03,-4.49 -10.03,-10.03 0,-5.53 4.49,-10.03 10.03,-10.03 h 49.86 c 5.54,0 10.03,4.5 10.03,10.03 0,5.54 -4.49,10.03 -10.03,10.03"
         style="fill:#6465a6;fill-opacity:1;fill-rule:nonzero;stroke:none"
         id="path120" />
      <path
         d="m 2981.64,3607.38 h -49.87 c -5.55,0 -10.03,-4.49 -10.03,-10.03 0,-5.53 4.48,-10.03 10.03,-10.03 h 49.87 c 5.54,0 10.02,4.5 10.02,10.03 0,5.54 -4.48,10.03 -10.02,10.03"
         style="fill:#6465a6;fill-opacity:1;fill-rule:nonzero;stroke:none"
         id="path122" />
      <path
         d="m 2810.56,4241.08 h -49.88 c -5.53,0 -10.03,-4.49 -10.03,-10.03 0,-5.53 4.5,-10.03 10.03,-10.03 h 49.88 c 5.53,0 10.03,4.5 10.03,10.03 0,5.54 -4.5,10.03 -10.03,10.03"
         style="fill:#6465a6;fill-opacity:1;fill-rule:nonzero;stroke:none"
         id="path124" />
      <path
         d="m 2772.19,3607.38 h -49.86 c -5.54,0 -10.03,-4.49 -10.03,-10.03 0,-5.53 4.49,-10.03 10.03,-10.03 h 49.86 c 5.54,0 10.03,4.5 10.03,10.03 0,5.54 -4.49,10.03 -10.03,10.03"
         style="fill:#6465a6;fill-opacity:1;fill-rule:nonzero;stroke:none"
         id="path126" />
      <path
         d="m 3355.44,1686.33 h -25.07 c -5.55,0 -10.03,4.49 -10.03,10.03 0,5.54 4.48,10.03 10.03,10.03 h 25.07 c 5.54,0 10.02,-4.49 10.02,-10.03 0,-5.54 -4.48,-10.03 -10.02,-10.03"
         style="fill:#6465a6;fill-opacity:1;fill-rule:nonzero;stroke:none"
         id="path128" />
      <path
         d="m 1455.07,2953.74 h -50.4 c -5.54,0 -10.03,4.49 -10.03,10.02 0,5.54 4.49,10.03 10.03,10.03 h 50.4 c 5.54,0 10.03,-4.49 10.03,-10.03 0,-5.53 -4.49,-10.02 -10.03,-10.02 z m 211.7,0 h -50.4 c -5.54,0 -10.03,4.49 -10.03,10.02 0,5.54 4.49,10.03 10.03,10.03 h 50.4 c 5.54,0 10.03,-4.49 10.03,-10.03 0,-5.53 -4.49,-10.02 -10.03,-10.02 z m 211.71,0 h -50.41 c -5.54,0 -10.03,4.49 -10.03,10.02 0,5.54 4.49,10.03 10.03,10.03 h 50.41 c 5.53,0 10.02,-4.49 10.02,-10.03 0,-5.53 -4.49,-10.02 -10.02,-10.02 z m 211.69,0 h -50.4 c -5.54,0 -10.03,4.49 -10.03,10.02 0,5.54 4.49,10.03 10.03,10.03 h 50.4 c 5.54,0 10.03,-4.49 10.03,-10.03 0,-5.53 -4.49,-10.02 -10.03,-10.02 z m 211.71,0 h -50.41 c -5.54,0 -10.02,4.49 -10.02,10.02 0,5.54 4.48,10.03 10.02,10.03 h 50.41 c 5.53,0 10.02,-4.49 10.02,-10.03 0,-5.53 -4.49,-10.02 -10.02,-10.02 z m 211.69,0 h -50.4 c -5.54,0 -10.03,4.49 -10.03,10.02 0,5.54 4.49,10.03 10.03,10.03 h 50.4 c 5.54,0 10.02,-4.49 10.02,-10.03 0,-5.53 -4.48,-10.02 -10.02,-10.02 z m 211.71,0 h -50.41 c -5.54,0 -10.03,4.49 -10.03,10.02 0,5.54 4.49,10.03 10.03,10.03 h 50.41 c 5.54,0 10.02,-4.49 10.02,-10.03 0,-5.53 -4.48,-10.02 -10.02,-10.02 z m 211.69,0 h -50.4 c -5.54,0 -10.03,4.49 -10.03,10.02 0,5.54 4.49,10.03 10.03,10.03 h 50.4 c 5.55,0 10.03,-4.49 10.03,-10.03 0,-5.53 -4.48,-10.02 -10.03,-10.02 z m 211.7,0 h -50.4 c -5.54,0 -10.02,4.49 -10.02,10.02 0,5.54 4.48,10.03 10.02,10.03 h 50.4 c 5.55,0 10.03,-4.49 10.03,-10.03 0,-5.53 -4.48,-10.02 -10.03,-10.02 z m 211.71,0 h -50.41 c -5.54,0 -10.03,4.49 -10.03,10.02 0,5.54 4.49,10.03 10.03,10.03 h 50.41 c 5.54,0 10.03,-4.49 10.03,-10.03 0,-5.53 -4.49,-10.02 -10.03,-10.02 z m 211.7,0 h -50.41 c -5.55,0 -10.03,4.49 -10.03,10.02 0,5.54 4.48,10.03 10.03,10.03 h 50.41 c 5.54,0 10.02,-4.49 10.02,-10.03 0,-5.53 -4.48,-10.02 -10.02,-10.02 z m 211.7,0 h -50.4 c -5.55,0 -10.03,4.49 -10.03,10.02 0,5.54 4.48,10.03 10.03,10.03 h 50.4 c 5.54,0 10.02,-4.49 10.02,-10.03 0,-5.53 -4.48,-10.02 -10.02,-10.02 z m 204.98,-41.05 c -1.59,0 -3.19,0.37 -4.7,1.16 -14.31,7.6 -29.36,14.23 -44.74,19.72 -5.22,1.86 -7.94,7.6 -6.08,12.82 1.87,5.21 7.64,7.92 12.81,6.07 16.29,-5.82 32.25,-12.85 47.42,-20.88 4.88,-2.6 6.75,-8.67 4.16,-13.56 -1.81,-3.4 -5.28,-5.33 -8.87,-5.33 z m 144.22,-149.85 c -3.79,0 -7.4,2.15 -9.11,5.8 -6.78,14.63 -14.89,28.88 -24.05,42.35 -3.11,4.58 -1.93,10.82 2.66,13.93 4.58,3.13 10.82,1.93 13.93,-2.65 9.77,-14.36 18.4,-29.57 25.65,-45.19 2.33,-5.02 0.15,-10.98 -4.87,-13.32 -1.36,-0.63 -2.81,-0.92 -4.21,-0.92 z m 16.79,-206.54 c -0.91,0 -1.82,0.12 -2.73,0.37 -5.33,1.5 -8.45,7.04 -6.94,12.37 4.37,15.58 7.44,31.64 9.12,47.75 0.57,5.5 5.45,9.54 11,8.94 5.52,-0.57 9.52,-5.51 8.94,-11.01 -1.8,-17.24 -5.08,-34.43 -9.76,-51.1 -1.24,-4.42 -5.26,-7.32 -9.63,-7.32 z M 4029.8,2386.68 c -3.1,0 -6.16,1.43 -8.11,4.13 -3.26,4.47 -2.28,10.75 2.21,14 13.22,9.61 25.75,20.25 37.24,31.62 3.95,3.9 10.3,3.85 14.18,-0.08 3.9,-3.94 3.86,-10.3 -0.08,-14.18 -12.21,-12.07 -25.52,-23.37 -39.56,-33.58 -1.77,-1.29 -3.83,-1.91 -5.88,-1.91 z m -197.62,-66.49 c -5.41,0 -9.87,4.3 -10.02,9.73 -0.16,5.55 4.21,10.16 9.74,10.31 16.36,0.46 32.76,2.06 48.73,4.75 5.42,0.89 10.64,-2.76 11.56,-8.22 0.92,-5.46 -2.77,-10.64 -8.23,-11.55 -16.89,-2.85 -34.2,-4.54 -51.49,-5.02 -0.1,0 -0.19,0 -0.29,0 z m -2489.99,-0.15 h -50.41 c -5.53,0 -10.02,4.48 -10.02,10.02 0,5.55 4.49,10.03 10.02,10.03 h 50.41 c 5.53,0 10.02,-4.48 10.02,-10.03 0,-5.54 -4.49,-10.02 -10.02,-10.02 z m 211.7,0 h -50.4 c -5.54,0 -10.03,4.48 -10.03,10.02 0,5.55 4.49,10.03 10.03,10.03 h 50.4 c 5.53,0 10.03,-4.48 10.03,-10.03 0,-5.54 -4.5,-10.02 -10.03,-10.02 z m 211.7,0 h -50.41 c -5.54,0 -10.02,4.48 -10.02,10.02 0,5.55 4.48,10.03 10.02,10.03 h 50.41 c 5.54,0 10.03,-4.48 10.03,-10.03 0,-5.54 -4.49,-10.02 -10.03,-10.02 z m 211.7,0 h -50.41 c -5.53,0 -10.02,4.48 -10.02,10.02 0,5.55 4.49,10.03 10.02,10.03 h 50.41 c 5.54,0 10.02,-4.48 10.02,-10.03 0,-5.54 -4.48,-10.02 -10.02,-10.02 z m 211.7,0 h -50.4 c -5.54,0 -10.03,4.48 -10.03,10.02 0,5.55 4.49,10.03 10.03,10.03 h 50.4 c 5.54,0 10.03,-4.48 10.03,-10.03 0,-5.54 -4.49,-10.02 -10.03,-10.02 z m 211.7,0 h -50.41 c -5.53,0 -10.02,4.48 -10.02,10.02 0,5.55 4.49,10.03 10.02,10.03 h 50.41 c 5.54,0 10.03,-4.48 10.03,-10.03 0,-5.54 -4.49,-10.02 -10.03,-10.02 z m 211.7,0 h -50.41 c -5.54,0 -10.03,4.48 -10.03,10.02 0,5.55 4.49,10.03 10.03,10.03 h 50.41 c 5.54,0 10.02,-4.48 10.02,-10.03 0,-5.54 -4.48,-10.02 -10.02,-10.02 z m 211.7,0 h -50.4 c -5.55,0 -10.03,4.48 -10.03,10.02 0,5.55 4.48,10.03 10.03,10.03 h 50.4 c 5.54,0 10.02,-4.48 10.02,-10.03 0,-5.54 -4.48,-10.02 -10.02,-10.02 z m 211.7,0 h -50.4 c -5.55,0 -10.03,4.48 -10.03,10.02 0,5.55 4.48,10.03 10.03,10.03 h 50.4 c 5.55,0 10.03,-4.48 10.03,-10.03 0,-5.54 -4.48,-10.02 -10.03,-10.02 z m 211.7,0 h -50.41 c -5.54,0 -10.02,4.48 -10.02,10.02 0,5.55 4.48,10.03 10.02,10.03 h 50.41 c 5.55,0 10.03,-4.48 10.03,-10.03 0,-5.54 -4.48,-10.02 -10.03,-10.02 z m 211.7,0 h -50.4 c -5.54,0 -10.03,4.48 -10.03,10.02 0,5.55 4.49,10.03 10.03,10.03 h 50.4 c 5.54,0 10.03,-4.48 10.03,-10.03 0,-5.54 -4.49,-10.02 -10.03,-10.02 z m 211.71,0 h -50.41 c -5.55,0 -10.03,4.48 -10.03,10.02 0,5.55 4.48,10.03 10.03,10.03 h 50.41 c 5.54,0 10.02,-4.48 10.02,-10.03 0,-5.54 -4.48,-10.02 -10.02,-10.02 z m -2590.21,-8.33 c -4.62,0 -8.77,3.2 -9.79,7.89 -1.18,5.41 2.25,10.75 7.66,11.93 16.78,3.68 34.01,6.18 51.21,7.48 5.42,0.42 10.33,-3.72 10.75,-9.24 0.42,-5.52 -3.72,-10.35 -9.25,-10.76 -16.26,-1.22 -32.56,-3.6 -48.43,-7.07 -0.72,-0.16 -1.44,-0.23 -2.15,-0.23 z M 899.824,2208.37 c -2.406,0 -4.824,0.86 -6.75,2.62 -4.09,3.73 -4.386,10.05 -0.656,14.16 11.531,12.66 24.223,24.63 37.727,35.55 4.296,3.49 10.609,2.83 14.097,-1.48 3.485,-4.3 2.824,-10.62 -1.484,-14.1 -12.707,-10.3 -24.66,-21.56 -35.516,-33.47 -1.976,-2.18 -4.687,-3.28 -7.418,-3.28 z m -80.359,-191.16 c -0.164,0 -0.32,0 -0.477,0.01 -5.531,0.25 -9.804,4.95 -9.55,10.49 0.804,17.32 3.089,34.67 6.796,51.55 1.188,5.41 6.52,8.83 11.946,7.64 5.41,-1.18 8.832,-6.53 7.64,-11.93 -3.457,-15.78 -5.593,-32 -6.347,-48.21 -0.25,-5.36 -4.688,-9.55 -10.008,-9.55 z m 62.426,-197.7 c -3.02,0 -6.008,1.36 -7.981,3.95 -10.555,13.83 -20.008,28.53 -28.097,43.7 -2.61,4.88 -0.762,10.96 4.125,13.56 4.886,2.6 10.96,0.77 13.562,-4.13 7.586,-14.2 16.449,-27.99 26.355,-40.97 3.352,-4.41 2.508,-10.7 -1.89,-14.06 -1.817,-1.38 -3.957,-2.05 -6.074,-2.05 z m 171.719,-117.8 c -0.96,0 -1.94,0.14 -2.91,0.43 -16.53,5 -32.8,11.23 -48.37,18.5 -5.01,2.35 -7.174,8.32 -4.83,13.33 2.344,5.02 8.31,7.17 13.33,4.85 14.7,-6.89 30.07,-12.77 45.68,-17.49 5.31,-1.6 8.3,-7.2 6.69,-12.5 -1.31,-4.34 -5.28,-7.12 -9.59,-7.12 z m 210.16,-15.38 h -50.4 c -5.54,0 -10.03,4.49 -10.03,10.03 0,5.54 4.49,10.03 10.03,10.03 h 50.4 c 5.54,0 10.03,-4.49 10.03,-10.03 0,-5.54 -4.49,-10.03 -10.03,-10.03 z m 211.7,0 h -50.4 c -5.54,0 -10.03,4.49 -10.03,10.03 0,5.54 4.49,10.03 10.03,10.03 h 50.4 c 5.54,0 10.03,-4.49 10.03,-10.03 0,-5.54 -4.49,-10.03 -10.03,-10.03 z m 211.71,0 h -50.41 c -5.53,0 -10.03,4.49 -10.03,10.03 0,5.54 4.5,10.03 10.03,10.03 h 50.41 c 5.53,0 10.03,-4.49 10.03,-10.03 0,-5.54 -4.5,-10.03 -10.03,-10.03 z m 211.7,0 h -50.41 c -5.54,0 -10.02,4.49 -10.02,10.03 0,5.54 4.48,10.03 10.02,10.03 h 50.41 c 5.53,0 10.02,-4.49 10.02,-10.03 0,-5.54 -4.49,-10.03 -10.02,-10.03 z m 211.7,0 h -50.41 c -5.54,0 -10.03,4.49 -10.03,10.03 0,5.54 4.49,10.03 10.03,10.03 h 50.41 c 5.53,0 10.03,-4.49 10.03,-10.03 0,-5.54 -4.5,-10.03 -10.03,-10.03 z m 211.7,0 h -50.41 c -5.54,0 -10.02,4.49 -10.02,10.03 0,5.54 4.48,10.03 10.02,10.03 h 50.41 c 5.53,0 10.02,-4.49 10.02,-10.03 0,-5.54 -4.49,-10.03 -10.02,-10.03 z m 211.69,0 h -50.4 c -5.53,0 -10.02,4.49 -10.02,10.03 0,5.54 4.49,10.03 10.02,10.03 h 50.4 c 5.55,0 10.03,-4.49 10.03,-10.03 0,-5.54 -4.48,-10.03 -10.03,-10.03 z m 211.7,0 h -50.4 c -5.53,0 -10.02,4.49 -10.02,10.03 0,5.54 4.49,10.03 10.02,10.03 h 50.4 c 5.55,0 10.03,-4.49 10.03,-10.03 0,-5.54 -4.48,-10.03 -10.03,-10.03 z m 211.71,0 h -50.41 c -5.53,0 -10.03,4.49 -10.03,10.03 0,5.54 4.5,10.03 10.03,10.03 h 50.41 c 5.54,0 10.03,-4.49 10.03,-10.03 0,-5.54 -4.49,-10.03 -10.03,-10.03 z m 211.7,0 h -50.41 c -5.54,0 -10.03,4.49 -10.03,10.03 0,5.54 4.49,10.03 10.03,10.03 h 50.41 c 5.54,0 10.02,-4.49 10.02,-10.03 0,-5.54 -4.48,-10.03 -10.02,-10.03"
         style="fill:#6465a6;fill-opacity:1;fill-rule:nonzero;stroke:none"
         id="path130" />
      <path
         d="m 1242.02,2953.74 h -25.07 c -5.54,0 -10.03,4.49 -10.03,10.02 0,5.54 4.49,10.03 10.03,10.03 h 25.07 c 5.53,0 10.02,-4.49 10.02,-10.03 0,-5.53 -4.49,-10.02 -10.02,-10.02"
         style="fill:#6465a6;fill-opacity:1;fill-rule:nonzero;stroke:none"
         id="path132" />
      <path
         d="m 1874.9,1706.39 h -50.12 c -5.54,0 -10.03,-4.49 -10.03,-10.03 0,-5.54 4.49,-10.03 10.03,-10.03 h 50.12 c 5.54,0 10.03,4.49 10.03,10.03 0,5.54 -4.49,10.03 -10.03,10.03"
         style="fill:#6465a6;fill-opacity:1;fill-rule:nonzero;stroke:none"
         id="path134" />
      <path
         d="m 2085.42,1706.39 h -50.13 c -5.53,0 -10.02,-4.49 -10.02,-10.03 0,-5.54 4.49,-10.03 10.02,-10.03 h 50.13 c 5.54,0 10.02,4.49 10.02,10.03 0,5.54 -4.48,10.03 -10.02,10.03"
         style="fill:#6465a6;fill-opacity:1;fill-rule:nonzero;stroke:none"
         id="path136" />
      <path
         d="m 2064.5,438.98 h -50.12 c -5.54,0 -10.03,-4.48 -10.03,-10.019 0,-5.539 4.49,-10.031 10.03,-10.031 h 50.12 c 5.54,0 10.03,4.492 10.03,10.031 0,5.539 -4.49,10.019 -10.03,10.019"
         style="fill:#6465a6;fill-opacity:1;fill-rule:nonzero;stroke:none"
         id="path138" />
      <path
         d="m 4151.9,1306.35 c 0.73,-0.16 1.44,-0.23 2.15,-0.23 4.61,0 8.76,3.21 9.79,7.89 3.65,16.82 5.91,34.09 6.68,51.31 0.24,5.53 -4.04,10.22 -9.56,10.47 -5.47,0.29 -10.22,-4.03 -10.47,-9.57 -0.72,-16.09 -2.83,-32.23 -6.25,-47.94 -1.17,-5.42 2.26,-10.75 7.66,-11.93"
         style="fill:#6465a6;fill-opacity:1;fill-rule:nonzero;stroke:none"
         id="path140" />
      <path
         d="m 1853.98,438.98 h -50.12 c -5.54,0 -10.03,-4.48 -10.03,-10.019 0,-5.539 4.49,-10.031 10.03,-10.031 h 50.12 c 5.54,0 10.03,4.492 10.03,10.031 0,5.539 -4.49,10.019 -10.03,10.019"
         style="fill:#6465a6;fill-opacity:1;fill-rule:nonzero;stroke:none"
         id="path142" />
      <path
         d="m 1807.27,1062.66 c 0,5.54 -4.5,10.03 -10.03,10.03 h -50.13 c -5.53,0 -10.03,-4.49 -10.03,-10.03 0,-5.54 4.5,-10.03 10.03,-10.03 h 50.13 c 5.53,0 10.03,4.49 10.03,10.03"
         style="fill:#6465a6;fill-opacity:1;fill-rule:nonzero;stroke:none"
         id="path144" />
      <path
         d="m 2017.79,1062.66 c 0,5.54 -4.49,10.03 -10.03,10.03 h -50.12 c -5.54,0 -10.03,-4.49 -10.03,-10.03 0,-5.54 4.49,-10.03 10.03,-10.03 h 50.12 c 5.54,0 10.03,4.49 10.03,10.03"
         style="fill:#6465a6;fill-opacity:1;fill-rule:nonzero;stroke:none"
         id="path146" />
      <path
         d="m 2485.54,438.98 h -50.12 c -5.54,0 -10.03,-4.48 -10.03,-10.019 0,-5.539 4.49,-10.031 10.03,-10.031 h 50.12 c 5.53,0 10.03,4.492 10.03,10.031 0,5.539 -4.5,10.019 -10.03,10.019"
         style="fill:#6465a6;fill-opacity:1;fill-rule:nonzero;stroke:none"
         id="path148" />
      <path
         d="m 2506.46,1706.39 h -50.13 c -5.53,0 -10.02,-4.49 -10.02,-10.03 0,-5.54 4.49,-10.03 10.02,-10.03 h 50.13 c 5.53,0 10.02,4.49 10.02,10.03 0,5.54 -4.49,10.03 -10.02,10.03"
         style="fill:#6465a6;fill-opacity:1;fill-rule:nonzero;stroke:none"
         id="path150" />
      <path
         d="m 2438.82,1062.66 c 0,5.54 -4.49,10.03 -10.03,10.03 h -50.12 c -5.54,0 -10.03,-4.49 -10.03,-10.03 0,-5.54 4.49,-10.03 10.03,-10.03 h 50.12 c 5.54,0 10.03,4.49 10.03,10.03"
         style="fill:#6465a6;fill-opacity:1;fill-rule:nonzero;stroke:none"
         id="path152" />
      <path
         d="m 2228.31,1062.66 c 0,5.54 -4.5,10.03 -10.03,10.03 h -50.13 c -5.53,0 -10.02,-4.49 -10.02,-10.03 0,-5.54 4.49,-10.03 10.02,-10.03 h 50.13 c 5.53,0 10.03,4.49 10.03,10.03"
         style="fill:#6465a6;fill-opacity:1;fill-rule:nonzero;stroke:none"
         id="path154" />
      <path
         d="m 2275.02,438.98 h -50.12 c -5.54,0 -10.03,-4.48 -10.03,-10.019 0,-5.539 4.49,-10.031 10.03,-10.031 h 50.12 c 5.54,0 10.03,4.492 10.03,10.031 0,5.539 -4.49,10.019 -10.03,10.019"
         style="fill:#6465a6;fill-opacity:1;fill-rule:nonzero;stroke:none"
         id="path156" />
      <path
         d="m 2295.94,1706.39 h -50.12 c -5.54,0 -10.03,-4.49 -10.03,-10.03 0,-5.54 4.49,-10.03 10.03,-10.03 h 50.12 c 5.54,0 10.03,4.49 10.03,10.03 0,5.54 -4.49,10.03 -10.03,10.03"
         style="fill:#6465a6;fill-opacity:1;fill-rule:nonzero;stroke:none"
         id="path158" />
      <path
         d="m 1664.38,1706.39 h -50.12 c -5.54,0 -10.03,-4.49 -10.03,-10.03 0,-5.54 4.49,-10.03 10.03,-10.03 h 50.12 c 5.54,0 10.03,4.49 10.03,10.03 0,5.54 -4.49,10.03 -10.03,10.03"
         style="fill:#6465a6;fill-opacity:1;fill-rule:nonzero;stroke:none"
         id="path160" />
      <path
         d="m 1175.71,1062.66 c 0,5.54 -4.49,10.03 -10.03,10.03 h -7.45 c -14.62,0 -29.33,-0.85 -43.74,-2.55 -5.5,-0.65 -9.43,-5.63 -8.78,-11.13 0.59,-5.09 4.92,-8.85 9.94,-8.85 0.39,0 0.79,0.02 1.19,0.06 13.62,1.6 27.55,2.41 41.39,2.41 h 7.45 c 5.54,0 10.03,4.49 10.03,10.03"
         style="fill:#6465a6;fill-opacity:1;fill-rule:nonzero;stroke:none"
         id="path162" />
      <path
         d="m 847.988,643.242 c -1.968,5.18 -7.754,7.789 -12.933,5.797 -5.176,-1.957 -7.782,-7.75 -5.809,-12.93 6.082,-16 13.574,-31.687 22.281,-46.617 1.868,-3.203 5.227,-4.98 8.672,-4.98 1.715,0 3.453,0.437 5.039,1.359 4.785,2.789 6.407,8.918 3.617,13.711 -8.152,14 -15.171,28.688 -20.867,43.66"
         style="fill:#6465a6;fill-opacity:1;fill-rule:nonzero;stroke:none"
         id="path164" />
      <path
         d="m 1019.9,467.332 c -14.92,6.449 -29.431,14.02 -43.154,22.488 -4.711,2.93 -10.891,1.461 -13.793,-3.261 -2.914,-4.7 -1.453,-10.887 3.258,-13.797 14.535,-8.981 29.922,-17.012 45.719,-23.832 1.3,-0.571 2.65,-0.828 3.98,-0.828 3.88,0 7.57,2.257 9.21,6.039 2.2,5.078 -0.14,10.988 -5.22,13.191"
         style="fill:#6465a6;fill-opacity:1;fill-rule:nonzero;stroke:none"
         id="path166" />
      <path
         d="m 974.336,1012.23 c -3.004,4.66 -9.199,5.98 -13.863,2.99 -14.477,-9.33 -28.305,-19.771 -41.114,-31.021 -4.164,-3.648 -4.574,-9.988 -0.921,-14.148 1.984,-2.262 4.753,-3.41 7.539,-3.41 2.351,0 4.711,0.82 6.613,2.5 12.066,10.597 25.105,20.429 38.754,29.23 4.656,2.999 5.992,9.209 2.992,13.859"
         style="fill:#6465a6;fill-opacity:1;fill-rule:nonzero;stroke:none"
         id="path168" />
      <path
         d="m 4116.73,1515.58 c 1.81,-3.39 5.27,-5.33 8.87,-5.33 1.58,0 3.19,0.37 4.69,1.19 4.9,2.58 6.75,8.66 4.14,13.55 -8.01,15.1 -17.38,29.74 -27.82,43.51 -3.34,4.4 -9.64,5.28 -14.05,1.93 -4.41,-3.35 -5.28,-9.64 -1.93,-14.05 9.8,-12.92 18.57,-26.64 26.1,-40.8"
         style="fill:#6465a6;fill-opacity:1;fill-rule:nonzero;stroke:none"
         id="path170" />
      <path
         d="m 1643.46,438.98 h -50.12 c -5.54,0 -10.03,-4.48 -10.03,-10.019 0,-5.539 4.49,-10.031 10.03,-10.031 h 50.12 c 5.54,0 10.03,4.492 10.03,10.031 0,5.539 -4.49,10.019 -10.03,10.019"
         style="fill:#6465a6;fill-opacity:1;fill-rule:nonzero;stroke:none"
         id="path172" />
      <path
         d="m 833.473,795.629 c 2.773,15.84 6.922,31.59 12.34,46.801 1.855,5.222 -0.875,10.949 -6.094,12.808 -5.231,1.852 -10.949,-0.867 -12.809,-6.09 -5.789,-16.277 -10.226,-33.109 -13.187,-50.046 -0.953,-5.454 2.695,-10.653 8.14,-11.614 0.586,-0.097 1.168,-0.148 1.742,-0.148 4.786,0 9.012,3.43 9.868,8.289"
         style="fill:#6465a6;fill-opacity:1;fill-rule:nonzero;stroke:none"
         id="path174" />
      <path
         d="m 1453.86,1706.39 h -50.12 c -5.54,0 -10.03,-4.49 -10.03,-10.03 0,-5.54 4.49,-10.03 10.03,-10.03 h 50.12 c 5.54,0 10.03,4.49 10.03,10.03 0,5.54 -4.49,10.03 -10.03,10.03"
         style="fill:#6465a6;fill-opacity:1;fill-rule:nonzero;stroke:none"
         id="path176" />
      <path
         d="m 1222.42,438.98 h -50.12 c -5.54,0 -10.03,-4.48 -10.03,-10.019 0,-5.539 4.49,-10.031 10.03,-10.031 h 50.12 c 5.54,0 10.03,4.492 10.03,10.031 0,5.539 -4.49,10.019 -10.03,10.019"
         style="fill:#6465a6;fill-opacity:1;fill-rule:nonzero;stroke:none"
         id="path178" />
      <path
         d="m 1596.75,1062.66 c 0,5.54 -4.49,10.03 -10.03,10.03 h -50.12 c -5.54,0 -10.03,-4.49 -10.03,-10.03 0,-5.54 4.49,-10.03 10.03,-10.03 h 50.12 c 5.54,0 10.03,4.49 10.03,10.03"
         style="fill:#6465a6;fill-opacity:1;fill-rule:nonzero;stroke:none"
         id="path180" />
      <path
         d="m 1386.23,1062.66 c 0,5.54 -4.5,10.03 -10.03,10.03 h -50.13 c -5.53,0 -10.03,-4.49 -10.03,-10.03 0,-5.54 4.5,-10.03 10.03,-10.03 h 50.13 c 5.53,0 10.03,4.49 10.03,10.03"
         style="fill:#6465a6;fill-opacity:1;fill-rule:nonzero;stroke:none"
         id="path182" />
      <path
         d="m 1432.94,438.98 h -50.12 c -5.53,0 -10.03,-4.48 -10.03,-10.019 0,-5.539 4.5,-10.031 10.03,-10.031 h 50.12 c 5.54,0 10.03,4.492 10.03,10.031 0,5.539 -4.49,10.019 -10.03,10.019"
         style="fill:#6465a6;fill-opacity:1;fill-rule:nonzero;stroke:none"
         id="path184" />
      <path
         d="m 2649.35,1062.66 c 0,5.54 -4.49,10.03 -10.03,10.03 h -50.13 c -5.54,0 -10.02,-4.49 -10.02,-10.03 0,-5.54 4.48,-10.03 10.02,-10.03 h 50.13 c 5.54,0 10.03,4.49 10.03,10.03"
         style="fill:#6465a6;fill-opacity:1;fill-rule:nonzero;stroke:none"
         id="path186" />
      <path
         d="m 3911.53,1073.72 c -1.21,5.41 -6.59,8.79 -11.98,7.58 -15.77,-3.56 -31.97,-6.04 -48.12,-7.39 -5.52,-0.46 -9.63,-5.31 -9.15,-10.82 0.43,-5.24 4.81,-9.19 9.97,-9.19 0.27,0 0.55,0.01 0.84,0.04 17.08,1.41 34.2,4.05 50.87,7.8 5.41,1.21 8.79,6.58 7.57,11.98"
         style="fill:#6465a6;fill-opacity:1;fill-rule:nonzero;stroke:none"
         id="path188" />
      <path
         d="m 3959.17,438.98 h -50.12 c -5.54,0 -10.03,-4.48 -10.03,-10.019 0,-5.539 4.49,-10.031 10.03,-10.031 h 50.12 c 5.55,0 10.03,4.492 10.03,10.031 0,5.539 -4.48,10.019 -10.03,10.019"
         style="fill:#6465a6;fill-opacity:1;fill-rule:nonzero;stroke:none"
         id="path190" />
      <path
         d="m 3559.05,1706.39 h -50.11 c -5.55,0 -10.03,-4.49 -10.03,-10.03 0,-5.54 4.48,-10.03 10.03,-10.03 h 50.11 c 5.55,0 10.03,4.49 10.03,10.03 0,5.54 -4.48,10.03 -10.03,10.03"
         style="fill:#6465a6;fill-opacity:1;fill-rule:nonzero;stroke:none"
         id="path192" />
      <path
         d="m 3701.93,1062.66 c 0,5.54 -4.48,10.03 -10.03,10.03 h -50.11 c -5.55,0 -10.03,-4.49 -10.03,-10.03 0,-5.54 4.48,-10.03 10.03,-10.03 h 50.11 c 5.55,0 10.03,4.49 10.03,10.03"
         style="fill:#6465a6;fill-opacity:1;fill-rule:nonzero;stroke:none"
         id="path194" />
      <path
         d="m 3748.65,438.98 h -50.12 c -5.54,0 -10.02,-4.48 -10.02,-10.019 0,-5.539 4.48,-10.031 10.02,-10.031 h 50.12 c 5.54,0 10.03,4.492 10.03,10.031 0,5.539 -4.49,10.019 -10.03,10.019"
         style="fill:#6465a6;fill-opacity:1;fill-rule:nonzero;stroke:none"
         id="path196" />
      <path
         d="m 3979.31,1671.26 c -15.46,7.33 -31.61,13.62 -47.99,18.68 -5.31,1.64 -10.91,-1.32 -12.55,-6.6 -1.63,-5.3 1.33,-10.91 6.61,-12.55 15.48,-4.78 30.73,-10.72 45.33,-17.65 1.39,-0.65 2.84,-0.96 4.29,-0.96 3.76,0 7.35,2.12 9.06,5.73 2.39,5 0.25,10.99 -4.75,13.35"
         style="fill:#6465a6;fill-opacity:1;fill-rule:nonzero;stroke:none"
         id="path198" />
      <path
         d="m 3769.58,1706.39 h -50.13 c -5.54,0 -10.03,-4.49 -10.03,-10.03 0,-5.54 4.49,-10.03 10.03,-10.03 h 50.13 c 5.54,0 10.02,4.49 10.02,10.03 0,5.54 -4.48,10.03 -10.02,10.03"
         style="fill:#6465a6;fill-opacity:1;fill-rule:nonzero;stroke:none"
         id="path200" />
      <path
         d="m 4590.73,438.98 h -50.12 c -5.54,0 -10.02,-4.48 -10.02,-10.019 0,-5.539 4.48,-10.031 10.02,-10.031 h 50.12 c 5.54,0 10.03,4.492 10.03,10.031 0,5.539 -4.49,10.019 -10.03,10.019"
         style="fill:#6465a6;fill-opacity:1;fill-rule:nonzero;stroke:none"
         id="path202" />
      <path
         d="m 4801.25,438.98 h -50.12 c -5.54,0 -10.03,-4.48 -10.03,-10.019 0,-5.539 4.49,-10.031 10.03,-10.031 h 50.12 c 5.55,0 10.03,4.492 10.03,10.031 0,5.539 -4.48,10.019 -10.03,10.019"
         style="fill:#6465a6;fill-opacity:1;fill-rule:nonzero;stroke:none"
         id="path204" />
      <path
         d="m 4073.64,1182.1 c -10.79,-11.94 -22.62,-23.21 -35.19,-33.47 -4.29,-3.49 -4.92,-9.81 -1.42,-14.11 1.97,-2.43 4.86,-3.68 7.77,-3.68 2.22,0 4.47,0.74 6.34,2.26 13.34,10.89 25.92,22.87 37.39,35.56 3.71,4.11 3.38,10.45 -0.73,14.16 -4.12,3.7 -10.44,3.4 -14.16,-0.72"
         style="fill:#6465a6;fill-opacity:1;fill-rule:nonzero;stroke:none"
         id="path206" />
      <path
         d="m 5000,438.98 h -38.36 c -5.54,0 -10.03,-4.48 -10.03,-10.019 0,-5.539 4.49,-10.031 10.03,-10.031 H 5000 v 20.05"
         style="fill:#6465a6;fill-opacity:1;fill-rule:nonzero;stroke:none"
         id="path208" />
      <path
         d="m 4169.7,438.98 h -50.13 c -5.54,0 -10.02,-4.48 -10.02,-10.019 0,-5.539 4.48,-10.031 10.02,-10.031 h 50.13 c 5.53,0 10.03,4.492 10.03,10.031 0,5.539 -4.5,10.019 -10.03,10.019"
         style="fill:#6465a6;fill-opacity:1;fill-rule:nonzero;stroke:none"
         id="path210" />
      <path
         d="m 4380.21,438.98 h -50.12 c -5.55,0 -10.03,-4.48 -10.03,-10.019 0,-5.539 4.48,-10.031 10.03,-10.031 h 50.12 c 5.54,0 10.02,4.492 10.02,10.031 0,5.539 -4.48,10.019 -10.02,10.019"
         style="fill:#6465a6;fill-opacity:1;fill-rule:nonzero;stroke:none"
         id="path212" />
      <path
         d="m 2906.58,438.98 h -50.12 c -5.54,0 -10.02,-4.48 -10.02,-10.019 0,-5.539 4.48,-10.031 10.02,-10.031 h 50.12 c 5.55,0 10.03,4.492 10.03,10.031 0,5.539 -4.48,10.019 -10.03,10.019"
         style="fill:#6465a6;fill-opacity:1;fill-rule:nonzero;stroke:none"
         id="path214" />
      <path
         d="m 2927.5,1706.39 h -50.13 c -5.53,0 -10.03,-4.49 -10.03,-10.03 0,-5.54 4.5,-10.03 10.03,-10.03 h 50.13 c 5.54,0 10.02,4.49 10.02,10.03 0,5.54 -4.48,10.03 -10.02,10.03"
         style="fill:#6465a6;fill-opacity:1;fill-rule:nonzero;stroke:none"
         id="path216" />
      <path
         d="m 2696.06,438.98 h -50.12 c -5.55,0 -10.03,-4.48 -10.03,-10.019 0,-5.539 4.48,-10.031 10.03,-10.031 h 50.12 c 5.54,0 10.02,4.492 10.02,10.031 0,5.539 -4.48,10.019 -10.02,10.019"
         style="fill:#6465a6;fill-opacity:1;fill-rule:nonzero;stroke:none"
         id="path218" />
      <path
         d="m 3070.38,1062.66 c 0,5.54 -4.48,10.03 -10.03,10.03 h -50.13 c -5.53,0 -10.01,-4.49 -10.01,-10.03 0,-5.54 4.48,-10.03 10.01,-10.03 h 50.13 c 5.55,0 10.03,4.49 10.03,10.03"
         style="fill:#6465a6;fill-opacity:1;fill-rule:nonzero;stroke:none"
         id="path220" />
      <path
         d="m 2859.85,1062.66 c 0,5.54 -4.48,10.03 -10.02,10.03 h -50.12 c -5.55,0 -10.03,-4.49 -10.03,-10.03 0,-5.54 4.48,-10.03 10.03,-10.03 h 50.12 c 5.54,0 10.02,4.49 10.02,10.03"
         style="fill:#6465a6;fill-opacity:1;fill-rule:nonzero;stroke:none"
         id="path222" />
      <path
         d="m 2716.97,1706.39 h -50.11 c -5.55,0 -10.03,-4.49 -10.03,-10.03 0,-5.54 4.48,-10.03 10.03,-10.03 h 50.11 c 5.55,0 10.03,4.49 10.03,10.03 0,5.54 -4.48,10.03 -10.03,10.03"
         style="fill:#6465a6;fill-opacity:1;fill-rule:nonzero;stroke:none"
         id="path224" />
      <path
         d="m 3117.1,438.98 h -50.13 c -5.54,0 -10.03,-4.48 -10.03,-10.019 0,-5.539 4.49,-10.031 10.03,-10.031 h 50.13 c 5.54,0 10.02,4.492 10.02,10.031 0,5.539 -4.48,10.019 -10.02,10.019"
         style="fill:#6465a6;fill-opacity:1;fill-rule:nonzero;stroke:none"
         id="path226" />
      <path
         d="m 3491.43,1062.66 c 0,5.54 -4.49,10.03 -10.03,10.03 h -50.13 c -5.54,0 -10.02,-4.49 -10.02,-10.03 0,-5.54 4.48,-10.03 10.02,-10.03 h 50.13 c 5.54,0 10.03,4.49 10.03,10.03"
         style="fill:#6465a6;fill-opacity:1;fill-rule:nonzero;stroke:none"
         id="path228" />
      <path
         d="m 3538.13,438.98 h -50.11 c -5.55,0 -10.03,-4.48 -10.03,-10.019 0,-5.539 4.48,-10.031 10.03,-10.031 h 50.11 c 5.55,0 10.03,4.492 10.03,10.031 0,5.539 -4.48,10.019 -10.03,10.019"
         style="fill:#6465a6;fill-opacity:1;fill-rule:nonzero;stroke:none"
         id="path230" />
      <path
         d="m 3348.54,1706.39 h -50.13 c -5.54,0 -10.03,-4.49 -10.03,-10.03 0,-5.54 4.49,-10.03 10.03,-10.03 h 50.13 c 5.53,0 10.01,4.49 10.01,10.03 0,5.54 -4.48,10.03 -10.01,10.03"
         style="fill:#6465a6;fill-opacity:1;fill-rule:nonzero;stroke:none"
         id="path232" />
      <path
         d="m 3327.62,438.98 h -50.13 c -5.54,0 -10.02,-4.48 -10.02,-10.019 0,-5.539 4.48,-10.031 10.02,-10.031 h 50.13 c 5.54,0 10.03,4.492 10.03,10.031 0,5.539 -4.49,10.019 -10.03,10.019"
         style="fill:#6465a6;fill-opacity:1;fill-rule:nonzero;stroke:none"
         id="path234" />
      <path
         d="m 3138.02,1706.39 h -50.12 c -5.55,0 -10.03,-4.49 -10.03,-10.03 0,-5.54 4.48,-10.03 10.03,-10.03 h 50.12 c 5.54,0 10.03,4.49 10.03,10.03 0,5.54 -4.49,10.03 -10.03,10.03"
         style="fill:#6465a6;fill-opacity:1;fill-rule:nonzero;stroke:none"
         id="path236" />
      <path
         d="m 3280.9,1062.66 c 0,5.54 -4.48,10.03 -10.02,10.03 h -50.13 c -5.54,0 -10.03,-4.49 -10.03,-10.03 0,-5.54 4.49,-10.03 10.03,-10.03 h 50.13 c 5.54,0 10.02,4.49 10.02,10.03"
         style="fill:#6465a6;fill-opacity:1;fill-rule:nonzero;stroke:none"
         id="path238" />
      <path
         d="m 1242.02,1686.33 h -25.07 c -5.54,0 -10.03,4.49 -10.03,10.03 0,5.54 4.49,10.03 10.03,10.03 h 25.07 c 5.53,0 10.02,-4.49 10.02,-10.03 0,-5.54 -4.49,-10.03 -10.02,-10.03"
         style="fill:#6465a6;fill-opacity:1;fill-rule:nonzero;stroke:none"
         id="path240" />
      <path
         d="m 3852.63,3788.3 c 0,-27.06 -77.87,-49 -173.94,-49 -96.06,0 -173.93,21.94 -173.93,49 0,27.06 77.87,49 173.93,49 96.07,0 173.94,-21.94 173.94,-49"
         style="fill:#cbcdcb;fill-opacity:1;fill-rule:nonzero;stroke:none"
         id="path242" />
      <g
         id="g244">
        <g
           id="g246"
           clip-path="url(#clipPath250)">
          <path
             d="m 3891.96,4066.59 c 22.1,40.62 36.84,81.28 34.3,132.09 -6.36,127.36 -110.54,230.24 -237.97,235.04 -141.26,5.33 -257.45,-107.61 -257.45,-247.69 0,-72.08 33.46,-123.3 72.23,-180.79 42.2,-62.59 84.41,-125.18 126.62,-187.77 8.78,-13.03 18.52,-26.83 33.28,-32.22 16.72,-6.1 35.95,0.56 49.38,12.23 20.77,18.02 34,46.85 49.35,69.6 34.42,51.04 71.52,103.06 104.54,156.07 9.2,14.77 17.92,29.1 25.72,43.44"
             style="fill:url(#linearGradient256);fill-opacity:1;fill-rule:nonzero;stroke:none"
             id="path258" />
        </g>
      </g>
      <path
         d="m 3866.64,4192.07 c 0,-103.8 -84.15,-187.95 -187.95,-187.95 -103.81,0 -187.96,84.15 -187.96,187.95 0,103.81 84.15,187.96 187.96,187.96 103.8,0 187.95,-84.15 187.95,-187.96"
         style="fill:#ffffff;fill-opacity:1;fill-rule:nonzero;stroke:none"
         id="path260" />
      <path
         d="m 3649.17,4110.23 h 58.97 c 2.68,0 5.08,1.74 5.82,4.32 5.35,18.81 16.41,33.42 32.17,51.82 13.28,15.51 21.3,35.65 21.3,57.67 0,50.91 -42.87,91.82 -94.49,88.56 -43.54,-2.74 -81.76,-42.44 -82.96,-86.05 -0.62,-22.73 7.3,-43.6 20.79,-59.62 15.78,-18.73 27.1,-33.41 32.59,-52.41 0.74,-2.56 3.13,-4.29 5.81,-4.29"
         style="fill:#282c46;fill-opacity:1;fill-rule:nonzero;stroke:none"
         id="path262" />
      <path
         d="m 3709.12,4105.84 h -60.86 c -2.91,0 -5.26,-2.36 -5.26,-5.26 v -4.52 c 0,-2.91 2.35,-5.26 5.26,-5.26 h 60.86 c 2.9,0 5.26,2.35 5.26,5.26 v 4.52 c 0,2.9 -2.36,5.26 -5.26,5.26"
         style="fill:#282c46;fill-opacity:1;fill-rule:nonzero;stroke:none"
         id="path264" />
      <path
         d="m 3702.16,4086.41 h -46.95 c -2.9,0 -5.26,-2.36 -5.26,-5.26 v -4.52 c 0,-2.9 2.36,-5.26 5.26,-5.26 h 46.95 c 2.91,0 5.26,2.36 5.26,5.26 v 4.52 c 0,2.9 -2.35,5.26 -5.26,5.26"
         style="fill:#282c46;fill-opacity:1;fill-rule:nonzero;stroke:none"
         id="path266" />
      <path
         d="m 1462.13,3162.42 c 0,-27.06 -77.87,-49 -173.94,-49 -96.06,0 -173.94,21.94 -173.94,49 0,27.06 77.88,49 173.94,49 96.07,0 173.94,-21.94 173.94,-49"
         style="fill:#cbcdcb;fill-opacity:1;fill-rule:nonzero;stroke:none"
         id="path268" />
      <g
         id="g270">
        <g
           id="g272"
           clip-path="url(#clipPath276)">
          <path
             d="m 1493.21,3425.5 c 21.58,39.68 35.98,79.4 33.5,129.03 -6.21,124.41 -107.97,224.89 -232.45,229.59 -137.99,5.2 -251.49,-105.12 -251.49,-241.95 0,-70.41 32.69,-120.44 70.56,-176.59 41.23,-61.14 82.46,-122.28 123.68,-183.42 8.59,-12.73 18.1,-26.2 32.52,-31.47 16.32,-5.96 35.11,0.55 48.24,11.94 20.28,17.61 33.2,45.76 48.19,67.99 33.63,49.86 69.87,100.66 102.13,152.45 8.99,14.43 17.5,28.42 25.12,42.43"
             style="fill:url(#linearGradient282);fill-opacity:1;fill-rule:nonzero;stroke:none"
             id="path284" />
        </g>
      </g>
      <path
         d="m 1468.48,3548.08 c 0,-101.4 -82.2,-183.6 -183.6,-183.6 -101.39,0 -183.59,82.2 -183.59,183.6 0,101.4 82.2,183.59 183.59,183.59 101.4,0 183.6,-82.19 183.6,-183.59"
         style="fill:#ffffff;fill-opacity:1;fill-rule:nonzero;stroke:none"
         id="path286" />
      <path
         d="m 1274.19,3531.95 c -18.66,-18.67 -48.93,-18.67 -67.59,0 -18.67,18.66 -18.67,48.92 0,67.59 18.66,18.66 48.93,18.66 67.59,0 18.67,-18.67 18.67,-48.93 0,-67.59 z m 90.18,-64.89 -40.42,40.42 c -0.78,0.78 -1.83,1.26 -2.93,1.33 l -3.51,0.23 c -1.1,0.08 -2.14,0.54 -2.93,1.33 l -11.02,11.02 c 21.2,30.12 18.36,72 -8.58,98.94 -31.31,31.31 -82.83,30.09 -112.58,-3.64 -26.23,-29.75 -25.26,-75.53 2.14,-104.22 26.66,-27.93 68.94,-31.38 99.48,-10.4 l 11.13,-11.13 c 0.79,-0.78 1.26,-1.82 1.33,-2.93 l 0.24,-3.5 c 0.07,-1.11 0.54,-2.15 1.33,-2.94 l 40.41,-40.41 c 1.79,-1.79 4.69,-1.79 6.48,0 l 19.43,19.43 c 1.78,1.78 1.78,4.68 0,6.47"
         style="fill:#282c46;fill-opacity:1;fill-rule:nonzero;stroke:none"
         id="path288" />
      <path
         d="m 3852.63,2541.58 c 0,-27.06 -77.87,-49 -173.94,-49 -96.06,0 -173.93,21.94 -173.93,49 0,27.07 77.87,49.01 173.93,49.01 96.07,0 173.94,-21.94 173.94,-49.01"
         style="fill:#cbcdcb;fill-opacity:1;fill-rule:nonzero;stroke:none"
         id="path290" />
      <g
         id="g292">
        <g
           id="g294"
           clip-path="url(#clipPath298)">
          <path
             d="m 3900.44,2836.51 c 22.99,42.24 38.3,84.52 35.66,137.34 -6.6,132.43 -114.93,239.4 -247.43,244.4 -146.87,5.53 -267.69,-111.9 -267.69,-257.55 0,-74.95 34.79,-128.2 75.09,-187.98 43.89,-65.08 87.78,-130.16 131.66,-195.23 9.15,-13.55 19.27,-27.9 34.61,-33.51 17.39,-6.34 37.39,0.59 51.35,12.71 21.59,18.75 35.34,48.72 51.31,72.38 35.79,53.07 74.37,107.15 108.7,162.28 9.57,15.35 18.63,30.25 26.74,45.16"
             style="fill:url(#linearGradient304);fill-opacity:1;fill-rule:nonzero;stroke:none"
             id="path306" />
        </g>
      </g>
      <path
         d="m 3874.12,2966.99 c 0,-107.93 -87.5,-195.43 -195.43,-195.43 -107.93,0 -195.43,87.5 -195.43,195.43 0,107.93 87.5,195.43 195.43,195.43 107.93,0 195.43,-87.5 195.43,-195.43"
         style="fill:#ffffff;fill-opacity:1;fill-rule:nonzero;stroke:none"
         id="path308" />
      <path
         d="m 3678.69,2907.62 c -30.9,0 -55.96,25.06 -55.96,55.95 0,30.9 25.06,55.92 55.96,55.92 30.9,0 55.92,-25.02 55.92,-55.92 0,-30.89 -25.02,-55.95 -55.92,-55.95 z m 113.44,75.8 h -15.36 c -2.61,12.9 -7.67,24.85 -14.7,35.44 l 10.88,10.88 c 3.17,3.18 3.17,8.33 0,11.48 l -16.61,16.61 c -3.16,3.18 -8.3,3.18 -11.49,0 l -10.88,-10.88 c -10.55,7.03 -22.53,12.09 -35.43,14.7 v 15.36 c 0,4.48 -3.62,8.13 -8.13,8.13 h -23.47 c -4.48,0 -8.12,-3.65 -8.12,-8.13 v -15.36 c -12.88,-2.61 -24.86,-7.67 -35.41,-14.7 l -10.88,10.88 c -3.18,3.18 -8.34,3.18 -11.51,0 l -16.59,-16.61 c -3.18,-3.15 -3.18,-8.3 0,-11.48 l 10.88,-10.88 c -7.03,-10.59 -12.09,-22.54 -14.69,-35.44 h -15.37 c -4.48,0 -8.13,-3.65 -8.13,-8.13 v -23.46 c 0,-4.49 3.65,-8.13 8.13,-8.13 h 15.37 c 2.6,-12.88 7.66,-24.86 14.69,-35.41 l -10.88,-10.88 c -3.18,-3.19 -3.18,-8.33 0,-11.52 l 16.59,-16.57 c 3.17,-3.19 8.33,-3.19 11.51,0 l 10.88,10.88 c 10.55,-7.04 22.53,-12.1 35.41,-14.7 v -15.36 c 0,-4.49 3.64,-8.13 8.12,-8.13 h 23.47 c 4.51,0 8.13,3.64 8.13,8.13 v 15.36 c 12.9,2.6 24.88,7.66 35.43,14.7 l 10.88,-10.88 c 3.19,-3.19 8.33,-3.19 11.49,0 l 16.61,16.57 c 3.17,3.19 3.17,8.33 0,11.52 l -10.88,10.88 c 7.03,10.55 12.09,22.53 14.7,35.41 h 15.36 c 4.48,0 8.12,3.64 8.12,8.13 v 23.46 c 0,4.48 -3.64,8.13 -8.12,8.13"
         style="fill:#282c46;fill-opacity:1;fill-rule:nonzero;stroke:none"
         id="path310" />
      <path
         d="m 1462.13,1898.23 c 0,-27.06 -77.87,-48.99 -173.94,-48.99 -96.06,0 -173.94,21.93 -173.94,48.99 0,27.06 77.88,49.01 173.94,49.01 96.07,0 173.94,-21.95 173.94,-49.01"
         style="fill:#cbcdcb;fill-opacity:1;fill-rule:nonzero;stroke:none"
         id="path312" />
      <g
         id="g314">
        <g
           id="g316"
           clip-path="url(#clipPath320)">
          <path
             d="m 1497.71,2181.29 c 22.06,40.54 36.76,81.11 34.23,131.82 -6.34,127.09 -110.31,229.75 -237.47,234.55 -140.97,5.31 -256.93,-107.4 -256.93,-247.18 0,-71.94 33.39,-123.04 72.08,-180.41 42.12,-62.46 84.24,-124.92 126.36,-187.37 8.77,-13.01 18.49,-26.78 33.21,-32.16 16.68,-6.1 35.88,0.55 49.29,12.19 20.72,18 33.92,46.76 49.23,69.47 34.36,50.93 71.38,102.84 104.34,155.74 9.18,14.75 17.88,29.04 25.66,43.35"
             style="fill:url(#linearGradient326);fill-opacity:1;fill-rule:nonzero;stroke:none"
             id="path328" />
        </g>
      </g>
      <path
         d="m 1472.44,2306.51 c 0,-103.58 -83.97,-187.55 -187.56,-187.55 -103.59,0 -187.56,83.97 -187.56,187.55 0,103.59 83.97,187.57 187.56,187.57 103.59,0 187.56,-83.98 187.56,-187.57"
         style="fill:#ffffff;fill-opacity:1;fill-rule:nonzero;stroke:none"
         id="path330" />
      <path
         d="m 1307.44,2328.57 c 22.07,8.59 37.73,30.02 37.73,55.13 0,32.67 -26.49,59.15 -59.15,59.15 -32.67,0 -59.14,-26.48 -59.14,-59.15 0,-23.91 14.19,-44.48 34.6,-53.81 l -34.5,-34.37 c -1.51,-1.51 -2.38,-3.73 -2.38,-6.08 v -86.64 c 0,-4.36 2.95,-7.9 6.59,-7.9 h 105.22 c 3.63,0 6.58,3.54 6.58,7.9 v 86.64 c 0,2.35 -0.87,4.57 -2.37,6.08 l -33.18,33.05"
         style="fill:#282c46;fill-opacity:1;fill-rule:nonzero;stroke:none"
         id="path332" />
      <path
         d="m 3852.63,1257.88 c 0,-27.06 -77.87,-48.99 -173.94,-48.99 -96.06,0 -173.93,21.93 -173.93,48.99 0,27.07 77.87,49 173.93,49 96.07,0 173.94,-21.93 173.94,-49"
         style="fill:#cbcdcb;fill-opacity:1;fill-rule:nonzero;stroke:none"
         id="path334" />
      <g
         id="g336">
        <g
           id="g338"
           clip-path="url(#clipPath342)">
          <path
             d="m 3896.26,1547.25 c 22.55,41.44 37.58,82.92 34.99,134.75 -6.48,129.93 -112.76,234.88 -242.76,239.79 -144.11,5.43 -262.65,-109.79 -262.65,-252.69 0,-73.53 34.13,-125.79 73.68,-184.43 43.06,-63.86 86.11,-127.71 129.18,-191.56 8.96,-13.3 18.9,-27.37 33.96,-32.87 17.05,-6.23 36.67,0.57 50.38,12.47 21.18,18.39 34.67,47.8 50.33,71.01 35.13,52.07 72.97,105.13 106.66,159.22 9.38,15.07 18.27,29.69 26.23,44.31"
             style="fill:url(#linearGradient348);fill-opacity:1;fill-rule:nonzero;stroke:none"
             id="path350" />
        </g>
      </g>
      <path
         d="m 3870.43,1675.27 c 0,-105.9 -85.84,-191.74 -191.74,-191.74 -105.9,0 -191.75,85.84 -191.75,191.74 0,105.89 85.85,191.74 191.75,191.74 105.9,0 191.74,-85.85 191.74,-191.74"
         style="fill:#ffffff;fill-opacity:1;fill-rule:nonzero;stroke:none"
         id="path352" />
      <path
         d="m 3623.83,1589.23 h -56.4 v 93.2 h 56.4 v -93.2"
         style="fill:#282c46;fill-opacity:1;fill-rule:nonzero;stroke:none"
         id="path354" />
      <path
         d="m 3706.88,1589.23 h -56.39 v 140.14 h 56.39 v -140.14"
         style="fill:#282c46;fill-opacity:1;fill-rule:nonzero;stroke:none"
         id="path356" />
      <path
         d="m 3789.95,1589.23 h -56.41 v 190.37 h 56.41 v -190.37"
         style="fill:#282c46;fill-opacity:1;fill-rule:nonzero;stroke:none"
         id="path358" />
      <path
         d="m 1462.13,655.809 c 0,-27.059 -77.87,-48.989 -173.94,-48.989 -96.06,0 -173.94,21.93 -173.94,48.989 0,27.07 77.88,49 173.94,49 96.07,0 173.94,-21.93 173.94,-49"
         style="fill:#cbcdcb;fill-opacity:1;fill-rule:nonzero;stroke:none"
         id="path360" />
      <g
         id="g362">
        <g
           id="g364"
           clip-path="url(#clipPath368)">
          <path
             d="m 1486.83,924.391 c 20.92,38.468 34.87,76.969 32.47,125.079 -6.01,120.6 -104.67,218.01 -225.33,222.56 -133.76,5.04 -243.78,-101.9 -243.78,-234.54 0,-68.248 31.69,-116.752 68.39,-171.181 39.97,-59.27 79.94,-118.539 119.9,-177.797 8.32,-12.34 17.54,-25.403 31.52,-30.512 15.82,-5.781 34.04,0.539 46.76,11.582 19.66,17.066 32.19,44.359 46.72,65.91 32.6,48.328 67.73,97.578 99,147.77 8.71,13.988 16.96,27.558 24.35,41.129"
             style="fill:url(#linearGradient374);fill-opacity:1;fill-rule:nonzero;stroke:none"
             id="path376" />
        </g>
      </g>
      <path
         d="m 1462.85,1043.22 c 0,-98.29 -79.68,-177.982 -177.97,-177.982 -98.29,0 -177.97,79.692 -177.97,177.982 0,98.28 79.68,177.97 177.97,177.97 98.29,0 177.97,-79.69 177.97,-177.97"
         style="fill:#ffffff;fill-opacity:1;fill-rule:nonzero;stroke:none"
         id="path378" />
      <path
         d="m 1284.88,944.07 c -58.42,0 -105.79,47.371 -105.79,105.79 0,58.43 47.37,105.8 105.79,105.8 58.43,0 105.8,-47.37 105.8,-105.8 0,-58.419 -47.37,-105.79 -105.8,-105.79 z m 0,240.13 c -74.19,0 -134.33,-60.15 -134.33,-134.34 0,-74.188 60.14,-134.321 134.33,-134.321 74.19,0 134.33,60.133 134.33,134.321 0,74.19 -60.14,134.34 -134.33,134.34"
         style="fill:#282c46;fill-opacity:1;fill-rule:nonzero;stroke:none"
         id="path380" />
      <path
         d="m 1284.88,988.469 c -33.91,0 -61.39,27.491 -61.39,61.391 0,33.91 27.48,61.4 61.39,61.4 33.91,0 61.4,-27.49 61.4,-61.4 0,-33.9 -27.49,-61.391 -61.4,-61.391 z m 0,146.701 c -47.11,0 -85.3,-38.19 -85.3,-85.31 0,-47.11 38.19,-85.301 85.3,-85.301 47.11,0 85.31,38.191 85.31,85.301 0,47.12 -38.2,85.31 -85.31,85.31"
         style="fill:#282c46;fill-opacity:1;fill-rule:nonzero;stroke:none"
         id="path382" />
      <path
         d="m 1284.88,1091.91 c -23.22,0 -42.04,-18.82 -42.04,-42.05 0,-23.22 18.82,-42.04 42.04,-42.04 23.23,0 42.05,18.82 42.05,42.04 0,23.23 -18.82,42.05 -42.05,42.05"
         style="fill:#282c46;fill-opacity:1;fill-rule:nonzero;stroke:none"
         id="path384" />
      <g
         id="g386"
         transform="scale(10)">
        <text
           xml:space="preserve"
           transform="matrix(1,0,0,-1,262.671,402.477)"
           style="font-variant:normal;font-weight:900;font-size:11.9069px;font-family:Montserrat;-inkscape-font-specification:Montserrat-Black;writing-mode:lr-tb;fill:#292e40;fill-opacity:1;fill-rule:nonzero;stroke:none"
           id="text390"><tspan
             x="0 8.6796808 18.777391 28.349661 37.208393 45.221737 53.770565"
             y="0"
             sodipodi:role="line"
             id="tspan388">CONCEPT</tspan></text>
      </g>
      <g
         id="g392"
         transform="scale(10)">
        <text
           xml:space="preserve"
           transform="matrix(1,0,0,-1,192.488,395.56)"
           style="font-variant:normal;font-weight:500;font-size:4.10727px;font-family:Montserrat;-inkscape-font-specification:Montserrat-Medium;writing-mode:lr-tb;fill:#040606;fill-opacity:1;fill-rule:nonzero;stroke:none"
           id="text404"><tspan
             x="0 2.4106412 5.0187578 6.6535196 9.1671686 13.508554 15.192633 16.33856 19.139719 21.197462 23.978083 28.319468 30.003057 32.804214 35.412334 36.558262 39.166378 40.850357 42.534439 44.592178 45.73811 47.438519 49.122597 51.578743 55.932751 58.4464 60.187607 61.119957 62.803547 65.116058 67.724174 70.521225 72.578972 75.092621 77.467628 79.093597 81.607246 83.307663 86.08828 88.601929 90.285912 91.969505 94.437271 97.238426 98.384354 101.18552 102.33144 104.38918 106.73444 107.88036 110.68994 113.52396 115.20657 117.72022 118.86615 120.01208 121.75328 122.68563 124.36922 126.42696 128.94061 131.74178"
             y="0"
             sodipodi:role="line"
             id="tspan394">Lorem ipsum dolor sit amet, consectetuer adipiscing elit, sed </tspan><tspan
             x="0 2.8011582 3.9470866 6.403234 10.744618 13.553124 16.362211 18.970327 21.767378 24.548 28.889385 33.189682 35.485645 38.294727 41.091778 42.237705 45.038864 47.835915 50.644482 53.158131 55.939388 57.085316 59.143913 63.497429 66.105545 68.906708 71.714348 73.414757 74.560684 77.370255 79.715508 80.861435 83.662598 86.443214 89.240265 90.940681 93.748291 96.528915 98.229324 101.03694 102.18287 104.65063 107.25875 108.89352 111.40717 113.92081 115.62122 118.42884 121.23 123.83811 124.98404 127.59216 129.22594 131.73959"
             y="4.9292998"
             sodipodi:role="line"
             id="tspan396">diam nonummy nibh euismod tincidunt ut laoreet dolore </tspan><tspan
             x="0 4.3413844 6.8096414 9.6436577 12.440708 14.896856 16.426638 18.882784 20.028713 21.174641 23.9758 26.756422 29.212568 33.553955 35.083736 37.597385 39.248749 41.704895 43.405304 44.935085 47.169479 49.777596 50.923523 53.704144 55.404552 58.184837 60.640987 62.382191 63.314541 64.842834 68.09169 69.792099 71.321388 75.013824 76.159752 78.217499 79.363426 80.892715 83.406364 86.203415 87.349342 91.690727 93.220024 95.68779 98.488953 100.01922 104.3606 105.50514 108.30219 109.44868 113.79006 115.31741 117.55177 120.06542 122.86247 124.0084 126.46455 130.80594 131.73828"
             y="9.8570299"
             sodipodi:role="line"
             id="tspan398">magna aliquam erat volutpat. Ut wisi enim ad minim veniam, </tspan><tspan
             x="0 2.8011582 5.58178 6.7277083 8.7854509 10.397263 13.206349 15.814466 17.872208 19.572618 21.256599 24.03722 26.838379 28.45019 30.90234 33.095703 35.609352 37.244114 39.589363 40.735291 42.346619 44.047028 46.503178 48.203587 49.349514 51.95763 54.754681 56.366009 59.146629 60.292561 61.438488 63.894634 68.24913 70.561646 73.169762 74.825027 77.626183 80.139832 81.823814 83.434166 85.491905 88.27253 90.330269 92.675522 93.821449 96.622612 97.768539 99.468948 101.08028 102.2262 104.83432 107.63548 110.24359 111.98871 113.68912 114.83504 116.89279 118.50314 121.30019 122.44611 124.50386 125.64979 127.26112 130.04173 131.74214"
             y="14.78633"
             sodipodi:role="line"
             id="tspan400">quis nostrud exerci tation ullamcorper suscipit lobortis nisl ut </tspan><tspan
             x="58.784 61.240147 62.386074 63.532005 66.33316 69.113785 70.259712 73.060867 74.165726 76.617874 78.885086 79.989944 82.442093 84.898239 86.003098 88.315613 90.923729 95.265114 99.619606 102.22772 105.02888 107.63699 108.74185 111.05437 113.66248 116.45953 118.51727 121.03092 123.83208 126.6127 129.06885 130.81006"
             y="19.71524"
             sodipodi:role="line"
             id="tspan402">aliquip ex ea commodo consequat.</tspan></text>
      </g>
      <g
         id="g406"
         transform="scale(10)">
        <text
           xml:space="preserve"
           transform="matrix(1,0,0,-1,164.488,340.966)"
           style="font-variant:normal;font-weight:900;font-size:11.9069px;font-family:Montserrat;-inkscape-font-specification:Montserrat-Black;writing-mode:lr-tb;fill:#292e40;fill-opacity:1;fill-rule:nonzero;stroke:none"
           id="text410"><tspan
             x="0 8.8701153 16.883459 24.705719 32.719063 42.316025 51.186665 60.045399"
             y="0"
             sodipodi:role="line"
             id="tspan408">RESEARCH</tspan></text>
      </g>
      <g
         id="g412"
         transform="scale(10)">
        <text
           xml:space="preserve"
           transform="matrix(1,0,0,-1,164.488,334.049)"
           style="font-variant:normal;font-weight:500;font-size:4.10727px;font-family:Montserrat;-inkscape-font-specification:Montserrat-Medium;writing-mode:lr-tb;fill:#040606;fill-opacity:1;fill-rule:nonzero;stroke:none"
           id="text424"><tspan
             x="0 2.4106412 5.0187578 6.6535196 9.1671686 13.508554 15.192633 16.33856 19.139719 21.197462 23.978083 28.319468 30.003057 32.804214 35.412334 36.558262 39.166378 40.850357 42.534439 44.592178 45.73811 47.438519 49.122597 51.578743 55.932751 58.4464 60.187607 61.119957 62.803547 65.116058 67.724174 70.521225 72.578972 75.092621 77.467628 79.093597 81.607246 83.307663 86.08828 88.601929 90.285912 91.969505 94.437271 97.238426 98.384354 101.18552 102.33144 104.38918 106.73444 107.88036 110.68994 113.52396 115.20657 117.72022 118.86615 120.01208 121.75328 122.68563 124.36922 126.42696 128.94061 131.74178"
             y="0"
             sodipodi:role="line"
             id="tspan414">Lorem ipsum dolor sit amet, consectetuer adipiscing elit, sed </tspan><tspan
             x="0 2.8011582 3.9470866 6.403234 10.744618 13.553124 16.362211 18.970327 21.767378 24.548 28.889385 33.189682 35.485645 38.294727 41.091778 42.237705 45.038864 47.835915 50.644482 53.158131 55.939388 57.085316 59.143913 63.497429 66.105545 68.906708 71.714348 73.414757 74.560684 77.370255 79.715508 80.861435 83.662598 86.443214 89.240265 90.940681 93.748291 96.528915 98.229324 101.03694 102.18287 104.65063 107.25875 108.89352 111.40717 113.92081 115.62122 118.42884 121.23 123.83811 124.98404 127.59216 129.22594 131.73959"
             y="4.9277301"
             sodipodi:role="line"
             id="tspan416">diam nonummy nibh euismod tincidunt ut laoreet dolore </tspan><tspan
             x="0 4.3413844 6.8096414 9.6436577 12.440708 14.896856 16.426638 18.882784 20.028713 21.174641 23.9758 26.756422 29.212568 33.553955 35.083736 37.597385 39.248749 41.704895 43.405304 44.935085 47.169479 49.777596 50.923523 53.704144 55.404552 58.184837 60.640987 62.382191 63.314541 64.842834 68.09169 69.792099 71.321388 75.013824 76.159752 78.217499 79.363426 80.892715 83.406364 86.203415 87.349342 91.690727 93.220024 95.68779 98.488953 100.01922 104.3606 105.50514 108.30219 109.44868 113.79006 115.31741 117.55177 120.06542 122.86247 124.0084 126.46455 130.80594 131.73828"
             y="9.8566399"
             sodipodi:role="line"
             id="tspan418">magna aliquam erat volutpat. Ut wisi enim ad minim veniam, </tspan><tspan
             x="0 2.8011582 5.58178 6.7277083 8.7854509 10.397263 13.206349 15.814466 17.872208 19.572618 21.256599 24.03722 26.838379 28.45019 30.902353 33.095715 35.609364 37.244137 39.58939 40.735317 42.346645 44.047054 46.503201 48.203609 49.349541 51.957657 54.754707 56.366032 59.146656 60.292583 61.438511 63.894661 68.249153 70.561668 73.169785 74.82505 77.626213 80.139862 81.823837 83.434189 85.491936 88.272552 90.330299 92.675545 93.821472 96.622635 97.768562 99.468971 101.0803 102.22623 104.83434 107.63551 110.24362 111.98873 113.68914 114.83507 116.89281 118.50316 121.30022 122.44614 124.50388 125.64981 127.26114 130.04176 131.74217"
             y="14.78555"
             sodipodi:role="line"
             id="tspan420">quis nostrud exerci tation ullamcorper suscipit lobortis nisl ut </tspan><tspan
             x="0 2.4561474 3.6020758 4.748004 7.5491624 10.329784 11.475713 14.276871 15.381726 17.833986 20.101198 21.206055 23.658205 26.114353 27.219208 29.532038 32.140152 36.481537 40.835155 43.443272 46.244431 48.852547 49.957401 52.269131 54.877247 57.674297 59.73204 62.245689 65.046852 67.827469 70.283615 72.024826"
             y="19.71446"
             sodipodi:role="line"
             id="tspan422">aliquip ex ea commodo consequat.</tspan></text>
      </g>
      <g
         id="g426"
         transform="scale(10)">
        <text
           xml:space="preserve"
           transform="matrix(1,0,0,-1,164.488,212.896)"
           style="font-variant:normal;font-weight:900;font-size:11.9069px;font-family:Montserrat;-inkscape-font-specification:Montserrat-Black;writing-mode:lr-tb;fill:#292e40;fill-opacity:1;fill-rule:nonzero;stroke:none"
           id="text430"><tspan
             x="0 7.7871127 15.799809 25.397478 36.755878 50.818359 60.915413 69.785538"
             y="0"
             sodipodi:role="line"
             id="tspan428">TEAMWORK</tspan></text>
      </g>
      <g
         id="g432"
         transform="scale(10)">
        <text
           xml:space="preserve"
           transform="matrix(1,0,0,-1,164.488,205.979)"
           style="font-variant:normal;font-weight:500;font-size:4.10727px;font-family:Montserrat;-inkscape-font-specification:Montserrat-Medium;writing-mode:lr-tb;fill:#040606;fill-opacity:1;fill-rule:nonzero;stroke:none"
           id="text444"><tspan
             x="0 2.4106412 5.0187578 6.6535196 9.1671686 13.508554 15.192633 16.33856 19.139719 21.197462 23.978083 28.319468 30.003057 32.804214 35.412334 36.558262 39.166378 40.850357 42.534439 44.592178 45.73811 47.438519 49.122597 51.578743 55.932751 58.4464 60.187607 61.119957 62.803547 65.116058 67.724174 70.521225 72.578972 75.092621 77.467628 79.093597 81.607246 83.307663 86.08828 88.601929 90.285912 91.969505 94.437271 97.238426 98.384354 101.18552 102.33144 104.38918 106.73444 107.88036 110.68994 113.52396 115.20657 117.72022 118.86615 120.01208 121.75328 122.68563 124.36922 126.42696 128.94061 131.74178"
             y="0"
             sodipodi:role="line"
             id="tspan434">Lorem ipsum dolor sit amet, consectetuer adipiscing elit, sed </tspan><tspan
             x="0 2.8011582 3.9470866 6.403234 10.744618 13.553124 16.362211 18.970327 21.767378 24.548 28.889385 33.189682 35.485645 38.294727 41.091778 42.237705 45.038864 47.835915 50.644482 53.158131 55.939388 57.085316 59.143913 63.497429 66.105545 68.906708 71.714348 73.414757 74.560684 77.370255 79.715508 80.861435 83.662598 86.443214 89.240265 90.940681 93.748291 96.528915 98.229324 101.03694 102.18287 104.65063 107.25875 108.89352 111.40717 113.92081 115.62122 118.42884 121.23 123.83811 124.98404 127.59216 129.22594 131.73959"
             y="4.9289098"
             sodipodi:role="line"
             id="tspan436">diam nonummy nibh euismod tincidunt ut laoreet dolore </tspan><tspan
             x="0 4.3413844 6.8096414 9.6436577 12.440708 14.896856 16.426638 18.882784 20.028713 21.174641 23.9758 26.756422 29.212568 33.553955 35.083736 37.597385 39.248749 41.704895 43.405304 44.935085 47.169479 49.777596 50.923523 53.704144 55.404552 58.184837 60.640987 62.382191 63.314541 64.842834 68.09169 69.792099 71.321388 75.013824 76.159752 78.217499 79.363426 80.892715 83.406364 86.203415 87.349342 91.690727 93.220024 95.68779 98.488953 100.01922 104.3606 105.50514 108.30219 109.44868 113.79006 115.31741 117.55177 120.06542 122.86247 124.0084 126.46455 130.80594 131.73828"
             y="9.8570299"
             sodipodi:role="line"
             id="tspan438">magna aliquam erat volutpat. Ut wisi enim ad minim veniam, </tspan><tspan
             x="0 2.8011582 5.58178 6.7277083 8.7854509 10.397263 13.206349 15.814466 17.872208 19.572618 21.256599 24.03722 26.838379 28.45019 30.902353 33.095715 35.609364 37.244137 39.58939 40.735317 42.346645 44.047054 46.503201 48.203609 49.349541 51.957657 54.754707 56.366032 59.146656 60.292583 61.438511 63.894661 68.249153 70.561668 73.169785 74.82505 77.626213 80.139862 81.823837 83.434189 85.491936 88.272552 90.330299 92.675545 93.821472 96.622635 97.768562 99.468971 101.0803 102.22623 104.83434 107.63551 110.24362 111.98873 113.68914 114.83507 116.89281 118.50316 121.30022 122.44614 124.50388 125.64981 127.26114 130.04176 131.74217"
             y="14.78594"
             sodipodi:role="line"
             id="tspan440">quis nostrud exerci tation ullamcorper suscipit lobortis nisl ut </tspan><tspan
             x="0 2.4561474 3.6020758 4.748004 7.5491624 10.329784 11.475713 14.276871 15.381726 17.833986 20.101198 21.206055 23.658205 26.114353 27.219208 29.532038 32.140152 36.481537 40.835155 43.443272 46.244431 48.852547 49.957401 52.269131 54.877247 57.674297 59.73204 62.245689 65.046852 67.827469 70.283615 72.024826"
             y="19.714849"
             sodipodi:role="line"
             id="tspan442">aliquip ex ea commodo consequat.</tspan></text>
      </g>
      <g
         id="g446"
         transform="scale(10)">
        <text
           xml:space="preserve"
           transform="matrix(1,0,0,-1,164.488,85.825)"
           style="font-variant:normal;font-weight:900;font-size:11.9069px;font-family:Montserrat;-inkscape-font-specification:Montserrat-Black;writing-mode:lr-tb;fill:#292e40;fill-opacity:1;fill-rule:nonzero;stroke:none"
           id="text450"><tspan
             x="0 11.359182 20.956144 29.82626 38.93565 46.948357"
             y="0"
             sodipodi:role="line"
             id="tspan448">MARKET</tspan></text>
      </g>
      <g
         id="g452"
         transform="scale(10)">
        <text
           xml:space="preserve"
           transform="matrix(1,0,0,-1,164.488,78.909)"
           style="font-variant:normal;font-weight:500;font-size:4.10727px;font-family:Montserrat;-inkscape-font-specification:Montserrat-Medium;writing-mode:lr-tb;fill:#040606;fill-opacity:1;fill-rule:nonzero;stroke:none"
           id="text464"><tspan
             x="0 2.4106412 5.0187578 6.6535196 9.1671686 13.508554 15.192633 16.33856 19.139719 21.197462 23.978083 28.319468 30.003057 32.804214 35.412334 36.558262 39.166378 40.850357 42.534439 44.592178 45.73811 47.438519 49.122597 51.578743 55.932751 58.4464 60.187607 61.119957 62.803547 65.116058 67.724174 70.521225 72.578972 75.092621 77.467628 79.093597 81.607246 83.307663 86.08828 88.601929 90.285912 91.969505 94.437271 97.238426 98.384354 101.18552 102.33144 104.38918 106.73444 107.88036 110.68994 113.52396 115.20657 117.72022 118.86615 120.01208 121.75328 122.68563 124.36922 126.42696 128.94061 131.74178"
             y="0"
             sodipodi:role="line"
             id="tspan454">Lorem ipsum dolor sit amet, consectetuer adipiscing elit, sed </tspan><tspan
             x="0 2.8011582 3.9470866 6.403234 10.744618 13.553124 16.362211 18.970327 21.767378 24.548 28.889385 33.189682 35.485645 38.294727 41.091778 42.237705 45.038864 47.835915 50.644482 53.158131 55.939388 57.085316 59.143913 63.497429 66.105545 68.906708 71.714348 73.414757 74.560684 77.370255 79.715508 80.861435 83.662598 86.443214 89.240265 90.940681 93.748291 96.528915 98.229324 101.03694 102.18287 104.65063 107.25875 108.89352 111.40717 113.92081 115.62122 118.42884 121.23 123.83811 124.98404 127.59216 129.22594 131.73959"
             y="4.9289098"
             sodipodi:role="line"
             id="tspan456">diam nonummy nibh euismod tincidunt ut laoreet dolore </tspan><tspan
             x="0 4.3413844 6.8096414 9.6436577 12.440708 14.896856 16.426638 18.882784 20.028713 21.174641 23.9758 26.756422 29.212568 33.553955 35.083736 37.597385 39.248749 41.704895 43.405304 44.935085 47.169479 49.777596 50.923523 53.704144 55.404552 58.184837 60.640987 62.382191 63.314541 64.842834 68.09169 69.792099 71.321388 75.013824 76.159752 78.217499 79.363426 80.892715 83.406364 86.203415 87.349342 91.690727 93.220024 95.68779 98.488953 100.01922 104.3606 105.50514 108.30219 109.44868 113.79006 115.31741 117.55177 120.06542 122.86247 124.0084 126.46455 130.80594 131.73828"
             y="9.8578196"
             sodipodi:role="line"
             id="tspan458">magna aliquam erat volutpat. Ut wisi enim ad minim veniam, </tspan><tspan
             x="0 2.8011582 5.58178 6.7277083 8.7854509 10.397263 13.206349 15.814466 17.872208 19.572618 21.256599 24.03722 26.838379 28.45019 30.902353 33.095715 35.609364 37.244137 39.58939 40.735317 42.346645 44.047054 46.503201 48.203609 49.349541 51.957657 54.754707 56.366032 59.146656 60.292583 61.438511 63.894661 68.249153 70.561668 73.169785 74.82505 77.626213 80.139862 81.823837 83.434189 85.491936 88.272552 90.330299 92.675545 93.821472 96.622635 97.768562 99.468971 101.0803 102.22623 104.83434 107.63551 110.24362 111.98873 113.68914 114.83507 116.89281 118.50316 121.30022 122.44614 124.50388 125.64981 127.26114 130.04176 131.74217"
             y="14.78594"
             sodipodi:role="line"
             id="tspan460">quis nostrud exerci tation ullamcorper suscipit lobortis nisl ut </tspan><tspan
             x="0 2.4561474 3.6020758 4.748004 7.5491624 10.329784 11.475713 14.276871 15.381726 17.833986 20.101198 21.206055 23.658205 26.114353 27.219208 29.532038 32.140152 36.481537 40.835155 43.443272 46.244431 48.852547 49.957401 52.269131 54.877247 57.674297 59.73204 62.245689 65.046852 67.827469 70.283615 72.024826"
             y="19.714849"
             sodipodi:role="line"
             id="tspan462">aliquip ex ea commodo consequat.</tspan></text>
      </g>
      <g
         id="g466"
         transform="scale(10)">
        <text
           xml:space="preserve"
           transform="matrix(1,0,0,-1,257.276,275.156)"
           style="font-variant:normal;font-weight:900;font-size:11.9069px;font-family:Montserrat;-inkscape-font-specification:Montserrat-Black;writing-mode:lr-tb;fill:#292e40;fill-opacity:1;fill-rule:nonzero;stroke:none"
           id="text470"><tspan
             x="0 7.7041078 15.49122 24.361347 33.542 41.329113 49.341797 58.498203"
             y="0"
             sodipodi:role="line"
             id="tspan468">STRATEGY</tspan></text>
      </g>
      <g
         id="g472"
         transform="scale(10)">
        <text
           xml:space="preserve"
           transform="matrix(1,0,0,-1,192.488,268.239)"
           style="font-variant:normal;font-weight:500;font-size:4.10727px;font-family:Montserrat;-inkscape-font-specification:Montserrat-Medium;writing-mode:lr-tb;fill:#040606;fill-opacity:1;fill-rule:nonzero;stroke:none"
           id="text484"><tspan
             x="0 2.4106412 5.0187578 6.6535196 9.1671686 13.508554 15.192633 16.33856 19.139719 21.197462 23.978083 28.319468 30.003057 32.804214 35.412334 36.558262 39.166378 40.850357 42.534439 44.592178 45.73811 47.438519 49.122597 51.578743 55.932751 58.4464 60.187607 61.119957 62.803547 65.116058 67.724174 70.521225 72.578972 75.092621 77.467628 79.093597 81.607246 83.307663 86.08828 88.601929 90.285912 91.969505 94.437271 97.238426 98.384354 101.18552 102.33144 104.38918 106.73444 107.88036 110.68994 113.52396 115.20657 117.72022 118.86615 120.01208 121.75328 122.68563 124.36922 126.42696 128.94061 131.74178"
             y="0"
             sodipodi:role="line"
             id="tspan474">Lorem ipsum dolor sit amet, consectetuer adipiscing elit, sed </tspan><tspan
             x="0 2.8011582 3.9470866 6.403234 10.744618 13.553124 16.362211 18.970327 21.767378 24.548 28.889385 33.189682 35.485645 38.294727 41.091778 42.237705 45.038864 47.835915 50.644482 53.158131 55.939388 57.085316 59.143913 63.497429 66.105545 68.906708 71.714348 73.414757 74.560684 77.370255 79.715508 80.861435 83.662598 86.443214 89.240265 90.940681 93.748291 96.528915 98.229324 101.03694 102.18287 104.65063 107.25875 108.89352 111.40717 113.92081 115.62122 118.42884 121.23 123.83811 124.98404 127.59216 129.22594 131.73959"
             y="4.9281201"
             sodipodi:role="line"
             id="tspan476">diam nonummy nibh euismod tincidunt ut laoreet dolore </tspan><tspan
             x="0 4.3413844 6.8096414 9.6436577 12.440708 14.896856 16.426638 18.882784 20.028713 21.174641 23.9758 26.756422 29.212568 33.553955 35.083736 37.597385 39.248749 41.704895 43.405304 44.935085 47.169479 49.777596 50.923523 53.704144 55.404552 58.184837 60.640987 62.382191 63.314541 64.842834 68.09169 69.792099 71.321388 75.013824 76.159752 78.217499 79.363426 80.892715 83.406364 86.203415 87.349342 91.690727 93.220024 95.68779 98.488953 100.01922 104.3606 105.50514 108.30219 109.44868 113.79006 115.31741 117.55177 120.06542 122.86247 124.0084 126.46455 130.80594 131.73828"
             y="9.8570299"
             sodipodi:role="line"
             id="tspan478">magna aliquam erat volutpat. Ut wisi enim ad minim veniam, </tspan><tspan
             x="0 2.8011582 5.58178 6.7277083 8.7854509 10.397263 13.206349 15.814466 17.872208 19.572618 21.256599 24.03722 26.838379 28.45019 30.90234 33.095703 35.609352 37.244114 39.589363 40.735291 42.346619 44.047028 46.503178 48.203587 49.349514 51.95763 54.754681 56.366009 59.146629 60.292561 61.438488 63.894634 68.24913 70.561646 73.169762 74.825027 77.626183 80.139832 81.823814 83.434166 85.491905 88.27253 90.330269 92.675522 93.821449 96.622612 97.768539 99.468948 101.08028 102.2262 104.83432 107.63548 110.24359 111.98871 113.68912 114.83504 116.89279 118.50314 121.30019 122.44611 124.50386 125.64979 127.26112 130.04173 131.74214"
             y="14.78594"
             sodipodi:role="line"
             id="tspan480">quis nostrud exerci tation ullamcorper suscipit lobortis nisl ut </tspan><tspan
             x="58.784 61.240147 62.386074 63.532005 66.33316 69.113785 70.259712 73.060867 74.165726 76.617874 78.885086 79.989944 82.442093 84.898239 86.003098 88.315613 90.923729 95.265114 99.619606 102.22772 105.02888 107.63699 108.74185 111.05437 113.66248 116.45953 118.51727 121.03092 123.83208 126.6127 129.06885 130.81006"
             y="19.71524"
             sodipodi:role="line"
             id="tspan482">aliquip ex ea commodo consequat.</tspan></text>
      </g>
      <g
         id="g486"
         transform="scale(10)">
        <text
           xml:space="preserve"
           transform="matrix(1,0,0,-1,230.32,149.835)"
           style="font-variant:normal;font-weight:900;font-size:11.9069px;font-family:Montserrat;-inkscape-font-specification:Montserrat-Black;writing-mode:lr-tb;fill:#292e40;fill-opacity:1;fill-rule:nonzero;stroke:none"
           id="text490"><tspan
             x="0 11.359182 20.956144 30.529291 40.00782 49.164227 57.17691 68.536095 76.548775 86.121925"
             y="0"
             sodipodi:role="line"
             id="tspan488">MANAGEMENT</tspan></text>
      </g>
      <g
         id="g492"
         transform="scale(10)">
        <text
           xml:space="preserve"
           transform="matrix(1,0,0,-1,192.488,142.918)"
           style="font-variant:normal;font-weight:500;font-size:4.10727px;font-family:Montserrat;-inkscape-font-specification:Montserrat-Medium;writing-mode:lr-tb;fill:#040606;fill-opacity:1;fill-rule:nonzero;stroke:none"
           id="text504"><tspan
             x="0 2.4106412 5.0187578 6.6535196 9.1671686 13.508554 15.192633 16.33856 19.139719 21.197462 23.978083 28.319468 30.003057 32.804214 35.412334 36.558262 39.166378 40.850357 42.534439 44.592178 45.73811 47.438519 49.122597 51.578743 55.932751 58.4464 60.187607 61.119957 62.803547 65.116058 67.724174 70.521225 72.578972 75.092621 77.467628 79.093597 81.607246 83.307663 86.08828 88.601929 90.285912 91.969505 94.437271 97.238426 98.384354 101.18552 102.33144 104.38918 106.73444 107.88036 110.68994 113.52396 115.20657 117.72022 118.86615 120.01208 121.75328 122.68563 124.36922 126.42696 128.94061 131.74178"
             y="0"
             sodipodi:role="line"
             id="tspan494">Lorem ipsum dolor sit amet, consectetuer adipiscing elit, sed </tspan><tspan
             x="0 2.8011582 3.9470866 6.403234 10.744618 13.553124 16.362211 18.970327 21.767378 24.548 28.889385 33.189682 35.485645 38.294727 41.091778 42.237705 45.038864 47.835915 50.644482 53.158131 55.939388 57.085316 59.143913 63.497429 66.105545 68.906708 71.714348 73.414757 74.560684 77.370255 79.715508 80.861435 83.662598 86.443214 89.240265 90.940681 93.748291 96.528915 98.229324 101.03694 102.18287 104.65063 107.25875 108.89352 111.40717 113.92081 115.62122 118.42884 121.23 123.83811 124.98404 127.59216 129.22594 131.73959"
             y="4.9281201"
             sodipodi:role="line"
             id="tspan496">diam nonummy nibh euismod tincidunt ut laoreet dolore </tspan><tspan
             x="0 4.3413844 6.8096414 9.6436577 12.440708 14.896856 16.426638 18.882784 20.028713 21.174641 23.9758 26.756422 29.212568 33.553955 35.083736 37.597385 39.248749 41.704895 43.405304 44.935085 47.169479 49.777596 50.923523 53.704144 55.404552 58.184837 60.640987 62.382191 63.314541 64.842834 68.09169 69.792099 71.321388 75.013824 76.159752 78.217499 79.363426 80.892715 83.406364 86.203415 87.349342 91.690727 93.220024 95.68779 98.488953 100.01922 104.3606 105.50514 108.30219 109.44868 113.79006 115.31741 117.55177 120.06542 122.86247 124.0084 126.46455 130.80594 131.73828"
             y="9.8570299"
             sodipodi:role="line"
             id="tspan498">magna aliquam erat volutpat. Ut wisi enim ad minim veniam, </tspan><tspan
             x="0 2.8011582 5.58178 6.7277083 8.7854509 10.397263 13.206349 15.814466 17.872208 19.572618 21.256599 24.03722 26.838379 28.45019 30.90234 33.095703 35.609352 37.244114 39.589363 40.735291 42.346619 44.047028 46.503178 48.203587 49.349514 51.95763 54.754681 56.366009 59.146629 60.292561 61.438488 63.894634 68.24913 70.561646 73.169762 74.825027 77.626183 80.139832 81.823814 83.434166 85.491905 88.27253 90.330269 92.675522 93.821449 96.622612 97.768539 99.468948 101.08028 102.2262 104.83432 107.63548 110.24359 111.98871 113.68912 114.83504 116.89279 118.50314 121.30019 122.44611 124.50386 125.64979 127.26112 130.04173 131.74214"
             y="14.78594"
             sodipodi:role="line"
             id="tspan500">quis nostrud exerci tation ullamcorper suscipit lobortis nisl ut </tspan><tspan
             x="58.784 61.240147 62.386074 63.532005 66.33316 69.113785 70.259712 73.060867 74.165726 76.617874 78.885086 79.989944 82.442093 84.898239 86.003098 88.315613 90.923729 95.265114 99.619606 102.22772 105.02888 107.63699 108.74185 111.05437 113.66248 116.45953 118.51727 121.03092 123.83208 126.6127 129.06885 130.81006"
             y="19.71406"
             sodipodi:role="line"
             id="tspan502">aliquip ex ea commodo consequat.</tspan></text>
      </g>
    </g>
  </g>
</svg>
